<svg width="16" height="20" viewBox="0 0 16 20" fill="none" xmlns="http://www.w3.org/2000/svg">
<path d="M9.8946 19.9511L10.0094 18.9385L10.6983 18.7145C10.6983 18.7145 11.6544 18.2985 12.0685 18.0745C12.3604 17.9112 12.6409 17.7282 12.908 17.5268L13.6213 16.8794L14.4928 15.8799V14.8014L15.3322 14.2782L15.5054 13.0661L15.6051 12.2341L15.6541 11.9029L16.5349 11.3288L16.5933 10.3331L17.1071 9.92659L18.0877 8.86505L18.1366 8.05948L18.8349 7.39507C18.8355 7.15 18.7987 6.90628 18.7258 6.67231C18.6117 6.3695 18.4816 6.07296 18.3362 5.78393L17.8637 5.08187C17.5308 4.63339 17.0968 4.26971 16.597 4.02033C16.3462 3.94271 16.102 3.84515 15.8667 3.72859C15.7425 3.64954 15.6371 3.54037 15.5167 3.45191C15.1176 3.15641 14.5756 3.16394 14.0937 3.16394C13.6589 3.16394 13.1903 3.17899 12.8063 2.93808C12.6806 2.8413 12.5472 2.75506 12.4073 2.68022C12.1438 2.56352 11.8426 2.61811 11.5547 2.66328C11.2334 2.7263 10.9029 2.7263 10.5816 2.66328C10.2691 2.58799 9.99247 2.41107 9.68756 2.31319C8.80293 2.02522 7.9936 2.35272 7.13533 2.53905C6.77629 2.59258 6.43073 2.71394 6.11707 2.89667C5.44875 3.30196 4.67243 3.49308 3.89234 3.44438L3.30322 3.42744H2.93807C2.6995 3.44766 2.46792 3.51822 2.25861 3.63448C2.00734 3.74974 1.76782 3.88905 1.54338 4.05044L0.941085 4.53981L0.596647 4.89366C0.464052 5.04656 0.344434 5.21025 0.239033 5.38302C0.161409 5.54712 0.102685 5.7195 0.0639909 5.89686L0.022583 6.29211L0.399018 8.72388L1.27047 9.55392L1.62808 10.0527L2.19273 10.1525L2.87408 12.6256L3.25051 13.9281C3.31996 14.0827 3.43316 14.2135 3.57613 14.3045C3.69832 14.392 3.83195 14.4623 3.97327 14.5135L4.54733 14.728L5.02917 15.4997L5.37737 15.9985H5.6277L6.32411 16.2055L7.20497 16.5217C7.28378 16.9272 7.41474 17.3207 7.59458 17.6925C7.72465 17.9884 7.87691 18.274 8.05006 18.547C8.24623 18.7943 8.4755 19.0134 8.73141 19.1982C9.19631 19.5483 9.85131 20.0132 9.8946 19.9511Z" fill="#677131"/>
<path d="M2.2059 10.1525C2.42849 9.97801 2.61948 9.76665 2.77055 9.52758C2.84356 9.37354 2.93386 9.22831 3.03971 9.09468L3.61753 9.23773L4.18219 11.2422L4.05796 11.7184L3.56107 11.7787L3.50084 12.3433L3.89421 12.6106L4.30829 12.5692L4.7619 12.4035L4.28759 13.354L4.09937 13.7041L4.53792 14.7374C4.53792 14.7374 3.56107 14.361 3.35591 14.1182C3.15075 13.8754 2.88537 12.6294 2.88537 12.6294L2.2059 10.1525Z" fill="#4C5621"/>
<path d="M7.20496 16.5274L8.1291 16.7382C8.30061 16.9331 8.49529 17.1063 8.70881 17.2539C8.87947 17.322 9.06149 17.3572 9.24523 17.3574C9.59663 17.1223 9.89846 16.8204 10.1336 16.469C10.3019 16.1849 10.4473 15.8879 10.5684 15.5807C11.1076 15.4368 11.6225 15.2142 12.0967 14.92C12.9023 14.425 13.0886 14.218 13.0886 14.218L13.3352 13.0604L14.7412 12.5861L14.9896 12.1927L15.4432 12.0271L15.1948 14.1352L14.4927 14.8014V15.8799L13.8453 16.6328L13.3145 17.109L12.5089 17.8336L11.5377 18.3286L10.4084 18.8048L10.015 18.9347L9.91153 19.6876L7.92395 18.3286C7.60908 17.7884 7.37868 17.2032 7.24072 16.5933L7.20496 16.5274Z" fill="#283308"/>
<path d="M6.18857 11.118L6.66288 11.9236L6.49724 12.1306L6.45584 12.3377L7.61338 13.1018L7.71689 14.7958L8.21191 16.1397L8.93466 16.2827L9.45226 15.0442L9.76282 13.5968L10.5684 12.6463L9.30733 12.8948L9.01748 12.7913L8.85185 11.9236L8.48106 11.8822L9.07959 11.0559L9.36944 10.416L8.72951 9.90025L7.84112 9.85884L7.63408 10.6437L6.91132 10.9524L6.18857 11.118Z" fill="#AE9F60"/>
<path d="M17.316 8.63919L17.6924 8.97045L17.8806 9.09468L17.1165 10.0019L16.5932 10.3256L16.5349 11.3213C16.5349 11.3213 15.6503 11.8859 15.5938 11.9029C15.5373 11.9198 14.9953 12.1927 14.9953 12.1927L15.622 10.6644L15.8705 9.83814L16.9396 9.42406L17.0845 8.76341L17.316 8.63919Z" fill="#4C5621"/>
<path d="M17.3348 7.8581C17.107 7.91119 16.886 7.99013 16.6761 8.09337C16.0888 8.38699 15.575 8.87447 14.9256 8.96293C14.7556 8.96633 14.5874 8.99946 14.4287 9.06081C14.2387 9.18952 14.0985 9.37952 14.0316 9.59911C13.9573 9.74838 13.9072 9.90846 13.8829 10.0734C13.8876 10.3667 13.9772 10.6524 14.1408 10.8959L14.5793 10.9844C14.6847 11.2272 14.7995 11.4643 14.9219 11.6977C14.9566 11.7549 14.9779 11.8193 14.984 11.886C14.9815 11.9453 14.9654 12.0032 14.9369 12.0553C14.8634 12.2873 14.7168 12.4894 14.5191 12.6313C14.4078 12.6841 14.2901 12.722 14.169 12.7442C13.9983 12.789 13.833 12.8521 13.6759 12.9324C13.569 12.9973 13.4537 13.0473 13.3333 13.0811C13.0378 13.1414 12.7574 12.9531 12.5146 12.7743C12.4697 12.7463 12.4333 12.7066 12.4092 12.6595C12.3998 12.6193 12.3998 12.5774 12.4092 12.5372C12.475 11.7561 12.7141 10.975 12.5974 10.1976L13.0886 10.0847C13.1677 9.82309 13.2449 9.56146 13.322 9.29796C13.3358 9.23886 13.3614 9.18316 13.3973 9.13421C13.4416 9.09102 13.4941 9.05711 13.5517 9.03446C14.0316 8.81612 14.5341 8.59403 15.0574 8.61285C15.272 8.61285 15.5148 8.6599 15.671 8.51498C15.7331 8.45851 15.7745 8.37569 15.8479 8.32676C15.9213 8.27782 16.023 8.29288 16.0926 8.24018C16.1344 8.19389 16.1721 8.14415 16.2055 8.09149C16.2908 8.01516 16.3958 7.9643 16.5086 7.94468C16.7965 7.86051 17.0613 7.71109 17.2821 7.50801C17.3443 7.6521 17.3861 7.80413 17.4064 7.95973C17.3913 7.90891 17.3781 7.85998 17.3631 7.81104L17.3348 7.8581Z" fill="#AE9F60"/>
<path d="M11.7034 10.3972C11.5695 11.1963 11.3217 11.9722 10.9674 12.7009C10.9112 12.8337 10.83 12.9544 10.7284 13.0567C10.6576 13.1146 10.5806 13.1645 10.4988 13.2054L9.72519 13.6194C9.72519 13.7117 9.72519 13.8077 9.72519 13.8924V13.7399C10.0967 14.2804 10.3488 14.8938 10.4649 15.5393C11.3894 15.3559 12.251 14.9371 12.9663 14.3234C13.0279 14.2752 13.0813 14.2174 13.1244 14.1521C13.1677 14.0662 13.1945 13.973 13.2035 13.8773C13.2373 13.6684 13.2712 13.4595 13.3032 13.2486C13.316 13.2102 13.316 13.1686 13.3032 13.1301C13.2817 13.095 13.2493 13.0678 13.211 13.0529L12.4581 12.6633C12.4161 12.6467 12.38 12.6178 12.3546 12.5805C12.333 12.5261 12.333 12.4655 12.3546 12.4111C12.5423 11.6859 12.6185 10.9364 12.5804 10.1882C12.2837 10.1845 11.9901 10.2489 11.7222 10.3764L11.7034 10.3972Z" fill="#4C5621"/>
<path d="M3.70598 9.52006L3.98454 9.54264C4.01379 9.54287 4.04265 9.54928 4.06924 9.56147C4.09317 9.57402 4.1143 9.59131 4.13135 9.61228C4.31957 9.8005 4.49273 9.98872 4.67154 10.1769C4.58085 9.98112 4.50961 9.77686 4.45885 9.56711C4.45325 9.53398 4.44178 9.50211 4.42497 9.473C4.39419 9.43544 4.35389 9.40684 4.30828 9.39019C4.07771 9.28402 3.82946 9.22148 3.57611 9.20573C3.61012 9.31167 3.6549 9.41384 3.70975 9.51065L3.70598 9.52006Z" fill="#283308"/>
<path d="M11.0408 12.763L11.8088 11.2573C11.869 11.1387 11.9857 10.9976 12.1062 11.054C12.1378 11.0751 12.1645 11.1029 12.1844 11.1354C12.2042 11.168 12.2167 11.2044 12.221 11.2422C12.3286 11.67 12.3916 12.1077 12.4092 12.5485C12.5508 11.7956 12.6064 11.029 12.5748 10.2635L11.8671 10.352C11.8424 10.3529 11.8181 10.3586 11.7956 10.3689C11.7577 10.3999 11.7334 10.4445 11.7278 10.4931C11.5235 11.3328 11.2522 12.1548 10.9166 12.9513C10.9166 12.9701 10.8959 12.9927 10.8752 12.9927C10.8545 12.9927 10.8545 12.9494 10.8752 12.9569L11.0408 12.763Z" fill="#283308"/>
<path d="M4.87292 10.4687L5.78578 11.2215C5.88998 11.3016 5.98358 11.3946 6.06434 11.4982C6.13395 11.5995 6.18966 11.7096 6.22997 11.8257C6.3015 12.0139 6.36737 12.1909 6.42948 12.3772C6.4803 12.268 6.53112 12.1589 6.58006 12.0497C6.60273 12.0058 6.6192 11.9589 6.629 11.9104C6.62782 11.7794 6.57587 11.6539 6.48407 11.5603C6.8605 11.2516 7.22564 10.9298 7.57949 10.5948C7.13154 10.8959 6.57818 10.9825 6.04364 11.0615C5.95618 11.0804 5.86571 11.0804 5.77825 11.0615C5.70113 11.0343 5.63014 10.992 5.56933 10.9373L4.91057 10.4235L4.87292 10.4687Z" fill="#4C5621"/>
<path d="M6.71182 12.5729C7.12662 13.1678 7.46433 13.8129 7.7169 14.4928L7.64915 13.2185C7.64926 13.1733 7.63828 13.1287 7.61715 13.0887C7.59473 13.0634 7.56795 13.0424 7.5381 13.0265L6.71747 12.5504L6.81722 12.6595L6.71182 12.5729Z" fill="#4C5621"/>
<path d="M9.38451 10.4724L10.1863 12.6482C9.91717 12.7442 9.59343 12.8364 9.36757 12.6595C9.1116 12.4713 9.09654 12.0102 8.78786 11.9179C8.64293 11.8728 8.47919 11.933 8.3399 11.8784C8.82445 11.5143 9.18787 11.0125 9.38263 10.4386C9.38263 10.4235 9.39581 10.4066 9.41086 10.4103C9.42592 10.4141 9.41086 10.4404 9.41086 10.4254L9.38451 10.4724Z" fill="#283308"/>
<path d="M8.89139 11.9067C9.13984 12.1871 9.37699 12.4807 9.60097 12.7819C9.415 12.8465 9.21671 12.8677 9.02126 12.844C9.00499 12.8438 8.98918 12.8386 8.97609 12.8289C8.96799 12.8202 8.96194 12.8097 8.95836 12.7983C8.95478 12.7869 8.95376 12.7749 8.95539 12.763C8.94442 12.4746 8.9136 12.1872 8.86316 11.9029L8.89139 11.9067Z" fill="#4C5621"/>
<path d="M7.32353 9.50688L7.03555 10.1261L7.63408 10.6437L7.77901 10.1468L7.84112 9.85885L7.32353 9.50688Z" fill="#4C5621"/>
<path d="M5.44324 15.9533L6.14717 15.1685L7.88254 15.9533L8.1291 16.7382L6.86993 16.4897L5.44324 15.9533Z" fill="#4C5621"/>
<path d="M7.32354 9.40335L6.06436 9.38265L4.88612 9.11349L4.42499 9.46358L4.67908 10.0452L5.67099 10.2917L6.43515 10.1882L7.03557 10.1261L7.32354 9.40335Z" fill="#AE9F60"/>
<path d="M3.50836 12.349C3.62874 12.4715 3.78375 12.5543 3.95256 12.5861C4.2537 12.6162 4.51721 12.3301 4.81271 12.3396C4.61886 12.7452 4.4027 13.1398 4.16524 13.5216L3.51589 12.3753L3.50836 12.349Z" fill="#283308"/>
<path d="M15.4846 9.03444L15.878 9.84002C15.878 9.84002 16.9923 9.46358 16.9302 9.42594C16.868 9.38829 17.0751 8.76529 17.0751 8.76529L16.7664 8.14606C16.7664 8.14606 15.6089 8.61848 15.4846 9.03444Z" fill="#AE9F60"/>
<path d="M10.6286 9.27913L13.0886 9.05327L12.9004 9.92095L10.3821 10.2296L10.1129 9.6311C10.2643 9.61485 10.4102 9.56536 10.5402 9.48617C10.5703 9.46116 10.594 9.42934 10.6094 9.39334C10.6248 9.35733 10.6314 9.31818 10.6286 9.27913Z" fill="#AE9F60"/>
<path d="M10.1731 9.33936C10.0903 9.15114 9.98492 9.20572 9.83622 9.08715C9.8074 9.05951 9.77436 9.03664 9.73835 9.01939C9.70257 9.00998 9.66497 9.00998 9.62919 9.01939C9.48238 9.05515 9.23393 9.23207 9.25275 9.41088C9.25821 9.442 9.27142 9.47124 9.29116 9.49591C9.31089 9.52058 9.33652 9.53988 9.36568 9.55204C9.59531 9.67439 9.87387 9.60475 10.1186 9.53322C10.1373 9.52881 10.1551 9.52117 10.1713 9.51064C10.2145 9.47111 10.1976 9.39582 10.1731 9.33936Z" fill="#AE9F60"/>
<path d="M14.0297 9.78732C14.1069 9.53511 14.201 9.25655 14.4325 9.12856C14.5052 9.08846 14.5822 9.05688 14.6621 9.03445L15.1722 8.89517C15.212 8.87751 15.2554 8.86949 15.2989 8.87178C15.3424 8.87407 15.3848 8.8866 15.4225 8.90835C15.4496 8.93577 15.4707 8.96844 15.4846 9.00434L15.8385 9.75721C15.8557 9.78764 15.8648 9.822 15.8648 9.85696C15.8616 9.88279 15.8532 9.90773 15.8404 9.93037L15.622 10.352L14.0128 9.76474L14.0297 9.78732Z" fill="#4C5621"/>
<path d="M10.3896 10.2804L11.0352 11.054C11.0731 11.0952 11.1043 11.1423 11.1274 11.1933C11.1457 11.2543 11.1534 11.3179 11.15 11.3815C11.15 11.6733 11.15 11.965 11.15 12.2567C11.4245 11.6557 11.6255 11.0237 11.7485 10.3746C11.3313 10.3805 10.9144 10.3496 10.5025 10.2823C10.4437 10.2704 10.3838 10.2641 10.3237 10.2635L10.3896 10.2804Z" fill="#4C5621"/>
<path d="M10.7642 13.0868C11.1161 13.6251 11.4022 14.2161 11.7241 14.76C12.0767 14.6358 12.3979 14.436 12.6652 14.1747C12.6821 14.1596 12.7009 14.1389 12.6934 14.1182C12.6859 14.0975 12.6727 14.0937 12.6595 14.0862C12.0104 13.7681 11.3818 13.4098 10.7773 13.0134L10.7642 13.0868Z" fill="#283308"/>
<path d="M2.22284 10.1901C2.5541 10.096 2.88787 10.0107 3.22416 9.93413C3.25126 9.92668 3.27987 9.92668 3.30697 9.93413C3.33299 9.94411 3.35578 9.96104 3.37285 9.98306C3.58365 10.207 3.79069 10.431 3.99585 10.6588C3.82976 10.2021 3.71364 9.7288 3.64953 9.24713C3.40416 9.21784 3.16407 9.15449 2.93618 9.05891C2.75342 9.47203 2.51327 9.85728 2.22284 10.2033V10.1901Z" fill="#283308"/>
<path d="M1.05587 9.27914L1.10669 7.97103C1.11525 7.87694 1.10761 7.78209 1.08411 7.69058C1.06129 7.62392 1.02963 7.56062 0.989998 7.50236C0.705403 7.05789 0.384996 6.6374 0.0319704 6.24507C-0.00182704 6.36827 -0.00182704 6.4983 0.0319704 6.62151C0.157449 7.28403 0.282927 7.9453 0.408406 8.60532C0.416219 8.66317 0.434053 8.71922 0.461106 8.77095C0.499358 8.82553 0.547186 8.87272 0.60227 8.91023C0.788594 9.06268 0.948801 9.2445 1.07658 9.44853L1.05587 9.27914Z" fill="#AE9F60"/>
<path d="M4.35534 11.3627L5.03669 11.086L4.67908 10.0433L4.06925 9.56146L3.70599 9.52005C3.70599 9.52005 4.05608 10.8526 4.35534 11.3627Z" fill="#AE9F60"/>
<path d="M3.62695 11.773C3.58366 11.9744 3.54225 12.1758 3.49896 12.3772C3.49522 12.392 3.49522 12.4075 3.49896 12.4224C3.5075 12.4347 3.51921 12.4444 3.53284 12.4506C3.63035 12.5128 3.73706 12.5592 3.84905 12.588C4.20478 12.6614 4.53981 12.3734 4.90307 12.3565L4.33841 11.9801C4.36654 11.8253 4.42751 11.6783 4.51722 11.549C4.22523 11.6514 3.92291 11.7215 3.61566 11.758L3.62695 11.773Z" fill="#AE9F60"/>
<path d="M17.6492 4.76003C17.5739 4.71983 17.5027 4.67256 17.4365 4.61887C17.2012 4.41371 17.1052 4.24244 16.8059 4.11068C16.5659 4.02971 16.335 3.92372 16.1171 3.79448C15.718 3.52156 15.415 3.1903 14.9219 3.09431C14.3459 2.98326 13.2599 3.11689 13.0886 3.00585C12.665 2.69002 12.142 2.53704 11.6149 2.57483C11.4455 2.57483 11.1368 2.69905 10.9806 2.65012C10.079 2.37344 9.01562 1.99888 8.06136 2.18334C7.68492 2.25674 6.00037 2.39602 6.01543 2.91174C5.0574 3.42745 3.88669 3.13572 2.83832 3.38793C1.98757 3.60061 1.25352 4.16903 0.658757 4.8372C0.425732 5.06166 0.26236 5.34854 0.188213 5.66348C0.0903402 6.2733 0.564649 6.79278 0.980609 7.24262C1.35946 7.69004 1.76286 8.11607 2.18897 8.51874C2.61354 8.9193 3.15492 9.17383 3.73423 9.24526C4.15584 9.27349 4.56992 9.16056 4.98776 9.14927C5.3568 9.15256 5.72127 9.23135 6.05872 9.38078L7.52305 9.44665C8.81046 9.50312 10.1957 9.31866 11.4944 9.17938L13.7643 8.9347C14.329 8.87447 15.0198 8.49804 15.5712 8.29852C16.1227 8.09901 16.5594 7.86562 17.0619 7.62659C17.1654 7.57765 17.2219 7.43837 17.2803 7.37814C17.4553 7.1711 17.7019 6.99041 17.8618 6.76455C18.0764 6.46152 18.0651 6.05309 18.0501 5.67665C18.035 5.38492 18.0068 5.06118 17.7978 4.86732C17.752 4.82668 17.7022 4.79074 17.6492 4.76003Z" fill="#82993F"/>
<path d="M17.2464 4.80896C17.1753 4.7706 17.1079 4.72587 17.045 4.67533C16.821 4.48711 16.7288 4.3083 16.4446 4.18972C16.2155 4.11305 15.9953 4.01209 15.7877 3.88858C15.4113 3.62884 15.1176 3.31263 14.6471 3.22229C14.0994 3.11688 13.0642 3.24299 12.9023 3.13759C12.4981 2.83635 11.9992 2.69009 11.4963 2.72539C11.3363 2.72539 11.0427 2.84397 10.8922 2.7988C10.0339 2.53529 9.01939 2.17768 8.11218 2.3546C7.74892 2.42424 6.14719 2.556 6.16224 3.04724C5.24939 3.53849 4.14079 3.26181 3.1357 3.50838C2.32449 3.70977 1.62996 4.26125 1.06531 4.88989C0.880859 5.08188 0.638058 5.36608 0.809336 5.60512C0.878926 5.6823 0.968464 5.73877 1.06809 5.76833C1.16772 5.79789 1.27357 5.79938 1.37399 5.77263L0.858272 6.00602C0.820629 6.02108 0.777339 6.04743 0.777339 6.08884C0.777339 6.13025 0.841333 6.16036 0.890269 6.16789L1.12931 6.21118C1.01638 6.19236 0.961792 6.36175 1.01449 6.46527C1.0654 6.54751 1.13936 6.61297 1.22718 6.65349C1.38978 6.74149 1.56964 6.79288 1.75419 6.80407C1.62861 6.84419 1.51786 6.92086 1.4361 7.02428C1.23471 7.34237 2.28496 8.19876 2.51647 8.39827C2.87785 8.71259 3.15641 8.89705 3.64577 8.84434C3.65562 8.85584 3.66249 8.86957 3.66577 8.88434C3.66905 8.89911 3.66865 8.91446 3.6646 8.92904C3.79709 8.88798 3.92364 8.82977 4.04103 8.75588C4.0544 8.77018 4.06183 8.78901 4.06183 8.80858C4.06183 8.82815 4.0544 8.84699 4.04103 8.86128C4.18219 8.86128 4.28948 8.74082 4.37041 8.62413L4.78261 8.04442C4.64521 8.33051 4.50593 8.60907 4.36853 8.90457L4.71109 8.71636C4.73555 8.77094 4.76002 8.82552 4.78261 8.88199C4.7861 8.86148 4.79402 8.84197 4.80582 8.82484C4.81762 8.8077 4.83302 8.79335 4.85094 8.78277C4.86886 8.7722 4.88887 8.76566 4.90958 8.76362C4.93028 8.76158 4.95119 8.76407 4.97083 8.77094C5.0036 8.78802 5.03295 8.81099 5.05741 8.8387C5.38302 9.14173 6.02296 9.18878 6.46339 9.22266C6.83983 9.25089 7.21626 9.25654 7.60399 9.27348C8.83117 9.32995 10.1506 9.15302 11.3872 9.01939L13.5517 8.78788C13.6891 8.77282 14.8315 8.44721 14.5473 8.29099C14.6371 8.26476 14.7291 8.24712 14.8221 8.23828C14.6299 7.96922 14.4062 7.72406 14.1558 7.508C14.4445 7.73168 14.7785 7.88969 15.1346 7.97101C15.1825 7.98513 15.2335 7.98513 15.2814 7.97101C15.2928 7.96682 15.3032 7.96043 15.3121 7.95219C15.321 7.94396 15.3282 7.93406 15.3333 7.92304C15.3383 7.91203 15.3412 7.90013 15.3416 7.88801C15.3421 7.8759 15.3402 7.86381 15.336 7.85244C15.3765 7.86305 15.419 7.86309 15.4596 7.85254C15.5001 7.842 15.5373 7.82122 15.5675 7.79221C15.5889 7.76374 15.6166 7.74056 15.6484 7.72445C15.6992 7.70751 15.7482 7.74704 15.799 7.76586C15.8409 7.78159 15.887 7.7819 15.929 7.76672C15.9711 7.75155 16.0064 7.72188 16.0286 7.68304C16.0379 7.66298 16.0424 7.64107 16.0419 7.61898C16.0414 7.59689 16.0359 7.57521 16.0257 7.5556C16.0155 7.53598 16.001 7.51895 15.9832 7.50581C15.9655 7.49267 15.9449 7.48376 15.9232 7.47977C16.6403 7.54376 17.0525 7.29155 17.4553 6.7269C17.6586 6.43892 17.6435 6.04743 17.6322 5.68982C17.6172 5.41314 17.5908 5.10258 17.3894 4.91813C17.3457 4.8768 17.2978 4.84021 17.2464 4.80896Z" fill="#617E36"/>
<path d="M10.0979 18.9083L10.8827 17.9917C11.2253 17.5889 11.5904 17.1335 11.5716 16.6046C11.5528 16.4871 11.5599 16.367 11.5923 16.2526C11.637 16.1696 11.7017 16.099 11.7805 16.0474L12.9305 15.1195C12.9418 15.3209 12.9513 15.5223 12.9625 15.7237C12.9588 15.7903 12.9767 15.8563 13.0134 15.9119C13.0491 15.9454 13.0897 15.9733 13.1338 15.9947C13.3672 16.1397 13.4143 16.454 13.4387 16.7288C13.4521 16.8112 13.4463 16.8955 13.4218 16.9753C13.3902 17.0436 13.3439 17.104 13.2863 17.1523C12.4031 18.0018 11.291 18.5749 10.0866 18.8011L10.2748 18.9065L10.0979 18.9083Z" fill="#AE9F60"/>
<path d="M13.4933 14.2424L14.3854 14.696C14.4177 14.716 14.4548 14.7264 14.4927 14.7261C14.5304 14.7186 14.5651 14.7003 14.5925 14.6734L15.0837 14.2669C15.1112 14.2461 15.1348 14.2206 15.1534 14.1916C15.171 14.1501 15.1775 14.1047 15.1722 14.0599C15.1722 13.371 15.4432 12.699 15.3905 12.0139L15.0141 12.1325C14.9736 12.142 14.9361 12.1614 14.9049 12.189C14.8522 12.2436 14.8579 12.3283 14.839 12.3998C14.7901 12.5729 14.6038 12.6614 14.4363 12.7216C14.1771 12.816 13.9125 12.8945 13.6439 12.9569C13.6342 13.4193 13.5781 13.8797 13.4763 14.3309L13.4651 14.1803L13.4933 14.2424Z" fill="#4C5621"/>
<path d="M9.54073 17.3405C9.75164 17.8272 9.92101 18.3309 10.047 18.8462C10.5743 18.3329 11.0456 17.7651 11.453 17.1523C10.9555 17.0901 10.4643 16.9849 9.98492 16.8379C9.92827 16.815 9.8663 16.8085 9.80612 16.8191C9.76896 16.8335 9.73551 16.856 9.70824 16.885C9.63089 16.9484 9.5734 17.0327 9.54261 17.1278C9.52766 17.1757 9.5268 17.2269 9.54015 17.2753C9.5535 17.3237 9.58049 17.3672 9.6179 17.4007L9.54073 17.3405Z" fill="#4C5621"/>
<path d="M7.5287 16.6441C7.7395 17.3267 7.94968 18.0099 8.15922 18.6938C7.94862 18.4009 7.78069 18.0796 7.66045 17.7395C7.49733 17.3317 7.33232 16.9245 7.16544 16.518C7.32504 16.5282 7.48049 16.5732 7.62092 16.6497L7.5287 16.6441Z" fill="#AE9F60"/>
<path d="M8.21003 5.18352C8.49989 5.74817 7.23695 6.05309 6.98285 6.37306C6.91454 6.46237 6.86114 6.56216 6.82475 6.66856C6.73466 6.88928 6.73063 7.13577 6.81346 7.35932C7.03932 7.89385 8.08393 8.07266 8.55635 8.26464C9.39204 8.60344 10.2258 8.96858 11.118 9.12856C11.4027 9.146 11.6886 9.12766 11.9687 9.07398C12.3188 9.04575 12.6651 8.99869 13.0133 8.95352C13.6043 8.87635 14.2048 8.9027 14.6715 8.50556C14.2951 8.36816 13.9074 8.26088 13.5272 8.12913C13.147 7.99737 12.7743 7.78657 12.3979 7.69246C11.948 7.49483 11.293 7.25768 11.0145 6.84172C10.9557 6.76501 10.9099 6.67917 10.879 6.58762C10.7472 6.0832 11.5979 5.81593 11.1989 5.2701C10.8884 4.85226 10.128 4.6791 9.66872 4.47582C9.04133 4.19601 8.4064 3.9256 7.76396 3.66461C7.37434 3.50462 6.98662 3.30323 6.59512 3.16959C6.50666 3.13948 5.8686 3.00396 6.08129 2.81763C5.54299 3.29194 4.97834 3.11878 4.36475 3.31076C4.61696 3.23171 4.88611 3.45945 5.10256 3.54791C5.38489 3.66461 5.67662 3.76436 5.95707 3.89047C6.59889 4.17656 7.21624 4.52288 7.83924 4.85602C7.99255 4.92605 8.1216 5.04004 8.21003 5.18352Z" fill="#A7A131"/>
<path d="M13.1131 8.15359C12.7367 8.02372 12.3602 7.81103 11.9838 7.71692C11.5359 7.52871 10.879 7.28214 10.6023 6.86806C10.5439 6.79071 10.4988 6.70421 10.4687 6.61209C10.3388 6.10766 11.1877 5.8404 10.7886 5.29456C10.4762 4.89366 9.71391 4.70544 9.25466 4.51723C8.62726 4.23741 7.99234 3.967 7.34989 3.70601C6.96405 3.53849 6.57256 3.33522 6.18106 3.1997C6.05367 3.16728 5.92802 3.12833 5.80463 3.08301C5.76506 3.13298 5.71123 3.16974 5.65029 3.18841C4.87107 3.43309 3.99962 3.26181 3.20346 3.47074C3.69722 3.36083 4.21242 3.3988 4.68473 3.5799C4.96894 3.69472 5.2588 3.79447 5.54112 3.92058C6.18106 4.20855 6.79842 4.55299 7.41389 4.88801C7.56829 4.95319 7.69948 5.06338 7.79032 5.20422C8.08018 5.76887 6.81724 6.07379 6.56314 6.39376C6.49483 6.48307 6.44143 6.58286 6.40504 6.68926C6.3172 6.91142 6.31519 7.15833 6.3994 7.3819C6.62526 7.91644 7.66986 8.09336 8.14417 8.28158C8.97798 8.62037 9.81178 8.98551 10.7039 9.1455C10.9893 9.16288 11.2757 9.14454 11.5566 9.09091C11.9048 9.06268 12.2511 9.01751 12.5993 8.97045C13.1903 8.89517 13.7926 8.91963 14.2594 8.5225C13.8829 8.39074 13.4933 8.28158 13.1131 8.15359Z" fill="#857A2E"/>
<path d="M8.02558 5.2701C8.31543 5.83475 7.05249 6.13966 6.7984 6.45963C6.73008 6.54895 6.67669 6.64874 6.6403 6.75513C6.55111 6.97604 6.54709 7.22219 6.629 7.44589C6.85487 7.98043 7.89947 8.15736 8.37378 8.35122C9.20759 8.69001 10.0414 9.05515 10.9335 9.21514C11.2189 9.23158 11.5052 9.21325 11.7862 9.16055C12.1344 9.13044 12.4826 9.08527 12.8289 9.0401C13.4199 8.96293 14.0222 8.98928 14.489 8.59214C14.1125 8.45474 13.7229 8.34746 13.3446 8.2157C12.9663 8.08395 12.5917 7.87503 12.2153 7.78092C11.7673 7.5927 11.1105 7.34614 10.8338 6.93018C10.7747 6.85329 10.7294 6.76666 10.7002 6.6742C10.5703 6.16978 11.4191 5.90251 11.0201 5.35668C10.7114 4.93695 9.94916 4.76567 9.48991 4.5624C8.86252 4.28133 8.2276 4.01092 7.58515 3.75118C7.25577 3.61567 6.92262 3.40486 6.5763 3.33146C6.25639 3.27939 5.93298 3.25171 5.60887 3.24864C5.52298 3.24394 5.4369 3.24394 5.35101 3.24864C5.20043 3.25993 4.93128 3.24864 4.8767 3.43686C4.78635 3.73989 5.5844 3.89423 5.78014 3.98081C6.42197 4.26878 7.03744 4.61322 7.66232 4.94825C7.81209 5.01798 7.93831 5.12982 8.02558 5.2701Z" fill="#E6CC46"/>
<path d="M8.09335 5.61077C7.62657 6.07002 7.5287 6.89064 7.95219 7.39319C8.16602 7.61716 8.42184 7.79687 8.70506 7.92208C9.19254 8.17805 9.68003 8.45661 10.1882 8.67495C10.4476 8.78402 10.7135 8.87705 10.9844 8.95351C11.1481 9.00056 11.5942 9.18878 11.7542 9.12855C11.4138 9.25623 11.0542 9.32497 10.6908 9.33183C10.6554 9.26926 10.6068 9.21524 10.5482 9.1736C10.4897 9.13197 10.4227 9.10373 10.352 9.09091L7.67928 8.2044C7.17485 8.03689 6.31658 7.54 6.52738 6.88688C6.62561 6.59192 6.83491 6.34684 7.11086 6.20365C7.41621 6.0542 7.70837 5.87916 7.98419 5.68041C8.01054 5.6597 8.01618 5.61453 8.0463 5.59947C8.07641 5.58441 8.0783 5.66158 8.05947 5.63335L8.09335 5.61077Z" fill="#C7B348"/>
<path d="M2.94182 3.80953C2.55033 3.94129 2.28118 4.18597 1.95933 4.42124C1.58289 4.69227 1.17822 4.89178 0.83002 5.19105C0.717089 5.28516 0.575926 5.4075 0.7265 5.55243C0.794919 5.60584 0.877227 5.6385 0.963654 5.64654C1.71157 5.75245 2.46814 5.78397 3.22227 5.74065C3.19027 5.83852 3.16015 5.93827 3.12816 6.03615C3.63358 6.02686 4.1385 6.07294 4.6339 6.17355C4.68368 6.17901 4.73046 6.20009 4.76753 6.23378C4.84094 6.32036 4.76753 6.44646 4.75436 6.55751C4.75788 6.62308 4.7785 6.68659 4.81415 6.74173C4.84981 6.79687 4.89928 6.84172 4.95763 6.87183C5.18914 7.01676 6.37115 7.23698 6.41632 7.45531C6.36101 7.23333 6.34069 7.00409 6.35609 6.77584C6.42949 6.15472 7.0732 6.10579 7.50798 5.80276C7.65103 5.703 7.86371 5.47338 7.83548 5.27763C7.80725 5.08188 7.68114 5.08941 7.52492 5.0066C7.06567 4.7845 6.60642 4.55864 6.15658 4.3196C5.63131 4.03949 5.06547 3.84325 4.47956 3.73801C3.9861 3.64195 3.47706 3.66192 2.99264 3.79636L2.94182 3.80953Z" fill="#577231"/>
<path d="M2.84394 2.86468C2.67309 2.93776 2.53185 3.06631 2.44306 3.22955C2.35427 3.3928 2.32309 3.58121 2.35458 3.76436C2.38662 4.27837 2.34479 4.79431 2.23035 5.29645C2.22362 5.31746 2.22114 5.3396 2.22308 5.36158C2.22502 5.38356 2.23133 5.40493 2.24165 5.42444C2.2596 5.44377 2.28232 5.45805 2.30752 5.46584C2.43242 5.5185 2.56324 5.55579 2.69713 5.57689C2.87761 5.59467 3.0598 5.58065 3.23544 5.53548C3.51485 5.51353 3.79594 5.52935 4.07112 5.58254L5.79519 5.80087C6.14151 5.84416 6.50666 5.88557 6.82286 5.74064C7.8957 5.25128 6.78145 4.20479 6.29773 3.80388C5.73448 3.32132 5.07392 2.96568 4.36098 2.76116C3.87718 2.61744 3.35828 2.64808 2.89476 2.84774L2.84394 2.86468Z" fill="#3A5220"/>
<path d="M2.75172 2.7254C2.3094 2.95315 1.98191 3.3597 1.67323 3.75119C1.48266 3.96532 1.31134 4.19583 1.16128 4.44006C1.03583 4.7049 0.926465 4.97705 0.833779 5.25505C0.819396 5.28563 0.812308 5.31913 0.813075 5.35292C0.820834 5.39723 0.844204 5.43729 0.878951 5.46585C1.08034 5.65407 1.38526 5.63336 1.65629 5.60701C2.38228 5.53327 3.11181 5.49997 3.8415 5.50726C4.44003 5.50726 5.07056 5.62019 5.66344 5.53173C6.08163 5.48614 6.49219 5.38682 6.88497 5.23623C7.7169 4.87485 6.56689 3.95258 6.21115 3.65708C5.64705 3.17429 4.98598 2.81807 4.27251 2.61247C3.7885 2.46935 3.2696 2.50066 2.8063 2.70093L2.75172 2.7254Z" fill="#82993F"/>
<path d="M2.66893 3.56296C2.61338 3.54462 2.56215 3.51516 2.51835 3.47638C2.10992 3.10935 2.71974 2.81385 2.99078 2.71033C3.70412 2.43554 4.82025 2.59552 5.24939 3.31639C5.28694 3.37183 5.30604 3.43769 5.30397 3.50461C5.29129 3.56137 5.26283 3.6134 5.22187 3.65469C5.18091 3.69598 5.12912 3.72486 5.07246 3.738C4.82778 3.81329 4.63203 3.71542 4.39864 3.6533C4.25372 3.61566 4.10879 3.57613 3.9601 3.55167C3.72997 3.51586 3.4957 3.51586 3.26557 3.55167C3.14131 3.57625 3.01556 3.59259 2.88914 3.6006C2.8142 3.59989 2.73985 3.58718 2.66893 3.56296Z" fill="#9EAF60"/>
<path opacity="0.38" d="M6.21118 3.65707C5.64708 3.17428 4.986 2.81807 4.27254 2.61247C4.00473 2.54025 3.72669 2.51353 3.45003 2.53341C3.66885 2.72702 3.8484 2.96089 3.97892 3.22229C4.07189 3.39289 4.1184 3.58494 4.11377 3.77918C4.10915 3.97341 4.05356 4.16302 3.95257 4.32901C3.8611 4.44527 3.75479 4.54904 3.63636 4.63769C3.25993 4.94636 2.86467 5.26069 2.45624 5.54113C2.91549 5.5129 3.37474 5.49784 3.83587 5.50349C4.4344 5.50349 5.06493 5.61642 5.65782 5.52796C6.076 5.48237 6.48657 5.38305 6.87935 5.23245C7.71692 4.87484 6.56691 3.95258 6.21118 3.65707Z" fill="#63782D"/>
<path d="M11.7673 4.5944C12.4148 4.81838 13.1489 4.87108 13.8377 4.92379C14.5266 4.97649 15.2644 4.74874 15.9081 4.52288C15.9271 4.51123 15.9417 4.49368 15.9497 4.47292C15.9577 4.45217 15.9587 4.42936 15.9525 4.40798C15.9463 4.38661 15.9333 4.36787 15.9154 4.35462C15.8975 4.34138 15.8758 4.33437 15.8535 4.33466C15.1515 4.50971 14.5097 4.86356 13.7643 4.81838C13.0961 4.77886 12.4468 4.67157 11.7749 4.59252C11.7749 4.59252 11.7749 4.59252 11.7749 4.60193L11.7673 4.5944Z" fill="#577231"/>
<path d="M16.7099 4.66969C15.9251 4.22486 15.0392 3.98896 14.137 3.98458C13.2957 3.95258 12.2115 3.95258 11.4304 4.29326C11.3777 4.31584 11.3194 4.34972 11.3138 4.40619C11.3081 4.46265 11.3909 4.51912 11.4606 4.53982C12.6708 4.91626 13.9074 5.22305 15.127 5.57125C15.6672 5.72559 16.277 5.86111 16.7664 5.58631C16.8551 5.54555 16.9309 5.48146 16.986 5.4009C17.041 5.32034 17.0731 5.22634 17.0789 5.12894C17.0581 5.02867 17.0138 4.93477 16.9497 4.85493C16.8855 4.7751 16.8034 4.71161 16.7099 4.66969Z" fill="#577231"/>
<path d="M11.6826 4.55864C11.5629 4.50256 11.4499 4.4331 11.3457 4.3516C11.6036 3.87164 11.6525 3.25994 11.7692 2.73481C11.8351 2.43931 11.9857 2.08546 12.2868 2.07605C12.588 2.06664 12.8101 2.45248 13.1244 2.46566C13.4387 2.47883 13.6363 2.08922 13.689 1.76925C13.7869 1.24601 13.8076 0.690767 14.0768 0.231516C14.1113 0.162048 14.1657 0.104399 14.233 0.0658843C14.4325 -0.0301066 14.632 0.19199 14.7355 0.387736C15.3435 1.54151 15.6296 2.83456 15.9081 4.10503C15.9199 4.13795 15.925 4.1729 15.9231 4.20781C15.9211 4.24273 15.9122 4.2769 15.8968 4.30831C15.8591 4.35263 15.8073 4.38255 15.75 4.39301C14.9765 4.63957 14.1728 4.89367 13.3427 4.88049C12.7735 4.88462 12.2091 4.77521 11.6826 4.55864Z" fill="#82993F"/>
<path d="M12.6256 2.25862C12.923 2.50706 13.45 2.63505 13.6495 2.19839C13.7719 1.92735 13.7549 1.5735 13.8095 1.28741C13.8447 1.0971 13.8893 0.908646 13.9431 0.722762C14.0147 0.476197 14.1502 -0.0150513 14.5078 0.231514C14.5927 0.300687 14.6642 0.384907 14.7186 0.479961L14.9633 0.856396C14.7751 0.570305 14.4325 -0.478067 13.9714 0.291743C13.7832 0.607949 13.7305 1.04461 13.6759 1.40787C13.6495 1.57539 13.6401 1.74478 13.6213 1.91418C13.6186 2.02937 13.5903 2.14252 13.5385 2.24544C13.3201 2.57294 12.8797 2.41296 12.635 2.25862C12.6256 2.24168 12.6219 2.24732 12.6256 2.25862Z" fill="#577231"/>
<path d="M14.713 0.376435C14.8541 1.04273 15.1628 1.6789 15.3548 2.33202C15.5468 2.98513 15.639 3.67589 15.7839 4.34971C15.8197 4.51722 16.0606 4.44382 16.0342 4.28195C15.8999 3.57825 15.7111 2.88604 15.4696 2.21156C15.2814 1.5942 15.0819 0.909091 14.7167 0.370789L14.713 0.376435Z" fill="#577231"/>
<path opacity="0.38" d="M13.9281 0.651239C13.9371 0.63534 13.9494 0.621617 13.9643 0.611047C13.9792 0.600476 13.9963 0.593319 14.0142 0.590084C14.0322 0.586849 14.0507 0.587616 14.0683 0.592331C14.086 0.597045 14.1023 0.605591 14.1163 0.61736C14.1715 0.667157 14.2096 0.732976 14.2255 0.805578C14.5191 1.64866 14.7149 2.52271 14.8089 3.41051C14.8391 3.60292 14.8353 3.79913 14.7977 3.99022C14.6772 4.46265 14.2029 4.74309 13.7512 4.93131L15.6465 4.51723C15.7025 4.51049 15.7558 4.48907 15.8008 4.45512C15.8302 4.42098 15.8521 4.38106 15.8651 4.33794C15.878 4.29482 15.8818 4.24946 15.8761 4.20479C15.8761 3.57802 15.6635 2.97384 15.4621 2.38096C15.2607 1.78807 15.1026 0.664414 14.568 0.246571C14.1408 -0.0865738 13.9281 0.376441 13.9017 0.735937L13.9281 0.651239Z" fill="#63782D"/>
<path d="M11.6695 3.10748C11.4877 3.08597 11.3043 3.13144 11.1536 3.23536C11.0029 3.33929 10.8952 3.49457 10.8507 3.67213C10.8373 3.71 10.8339 3.75068 10.8408 3.79025C10.8478 3.82982 10.8648 3.86693 10.8902 3.89799C10.9232 3.92273 10.9611 3.94006 11.0013 3.94881C11.1519 3.98834 11.3043 4.02222 11.4587 4.04669C11.5979 3.77894 11.6733 3.48261 11.6789 3.18089L11.6695 3.10748Z" fill="#577231"/>
<path d="M9.7873 7.30096C9.78089 7.31671 9.7688 7.32948 9.75342 7.33672C9.6531 7.36548 9.54587 7.35816 9.45039 7.31602C9.34378 7.28633 9.23938 7.24922 9.13795 7.20497C9.06827 7.18212 9.00416 7.14493 8.94973 7.0958C8.86691 7.00734 8.88762 6.90759 9.00055 6.87559C9.08113 6.84846 9.16737 6.84262 9.25088 6.85865C9.33092 6.89037 9.40529 6.93487 9.47109 6.9904C9.54514 7.04076 9.61616 7.09543 9.68378 7.15415C9.7233 7.18803 9.79859 7.25014 9.7873 7.30096Z" fill="#A2933A"/>
<path d="M9.69884 7.28967C9.69319 7.30375 9.68244 7.31518 9.66873 7.32167C9.59344 7.36308 9.48051 7.32167 9.40146 7.30285C9.30676 7.27691 9.21425 7.24356 9.12478 7.20309C9.06545 7.18238 9.01099 7.14971 8.9648 7.1071C8.89327 7.02993 8.91021 6.94524 9.01185 6.91889C9.08238 6.89326 9.1587 6.88804 9.23206 6.90383C9.30059 6.93169 9.36415 6.97046 9.42028 7.01864C9.48586 7.06382 9.54871 7.11285 9.6085 7.16545C9.65179 7.18992 9.71767 7.2445 9.69884 7.28967Z" fill="#C7B348"/>
<path d="M9.02314 4.84097C9.02067 4.85143 9.01469 4.86073 9.0062 4.86732C8.9493 4.90014 8.88253 4.91149 8.81798 4.89932C8.74853 4.89658 8.67935 4.88903 8.61094 4.87673C8.56667 4.87221 8.52377 4.85876 8.48484 4.8372C8.4706 4.83144 8.4584 4.82155 8.44982 4.8088C8.44123 4.79606 8.43665 4.78105 8.43665 4.76568C8.43665 4.75032 8.44123 4.7353 8.44982 4.72256C8.4584 4.70982 8.4706 4.69993 8.48484 4.69416C8.52956 4.66627 8.58085 4.65069 8.63353 4.64899C8.68741 4.65516 8.73971 4.67111 8.78787 4.69604C8.84083 4.71575 8.89239 4.73902 8.94221 4.76568C8.97232 4.77886 9.03443 4.80709 9.02314 4.84097Z" fill="#A2933A"/>
<path d="M8.97232 4.84472C8.97186 4.84947 8.97047 4.85408 8.9682 4.85829C8.96594 4.86249 8.96286 4.86619 8.95914 4.86919C8.90888 4.89755 8.85032 4.90753 8.79351 4.89742C8.73033 4.89537 8.66741 4.88845 8.60529 4.87672C8.56603 4.87344 8.52804 4.8612 8.49424 4.84095C8.4814 4.83642 8.47028 4.828 8.46241 4.81688C8.45454 4.80576 8.45032 4.79247 8.45032 4.77884C8.45032 4.76522 8.45454 4.75193 8.46241 4.74081C8.47028 4.72968 8.4814 4.72127 8.49424 4.71673C8.53308 4.69016 8.57894 4.67575 8.626 4.67532C8.67373 4.68162 8.72013 4.6956 8.7634 4.71673C8.81024 4.73358 8.85557 4.75436 8.89891 4.77884C8.92903 4.79202 8.97796 4.8146 8.97232 4.84472Z" fill="#C7B348"/>
<path d="M10.047 7.21627C10.0411 7.22298 10.0332 7.2276 10.0244 7.22944C9.96833 7.22633 9.91507 7.20369 9.87388 7.16545C9.8246 7.13216 9.77803 7.09502 9.73459 7.0544C9.70425 7.03108 9.67923 7.00157 9.66119 6.96782C9.63484 6.90947 9.66119 6.8643 9.72707 6.8643C9.77225 6.86388 9.81663 6.87628 9.85505 6.90006C9.89099 6.92975 9.92155 6.96541 9.9454 7.00546C9.97453 7.04413 10.0015 7.08434 10.0263 7.12592C10.0395 7.15227 10.0659 7.19368 10.047 7.21627Z" fill="#A2933A"/>
<path d="M10.0094 7.19745C10.0026 7.19912 9.99548 7.19912 9.98868 7.19745C9.94351 7.20686 9.89081 7.16733 9.85504 7.14286C9.81181 7.11274 9.77091 7.07939 9.7327 7.04311C9.7059 7.0227 9.6835 6.99709 9.66683 6.96782C9.64424 6.91512 9.66683 6.8756 9.72517 6.8756C9.76563 6.8757 9.80531 6.88675 9.83999 6.90759C9.87116 6.93385 9.89785 6.965 9.91904 6.99982C9.94503 7.0341 9.96891 7.06993 9.99056 7.1071C10.0019 7.13722 10.0263 7.17674 10.0094 7.19745Z" fill="#C7B348"/>
<path d="M10.446 8.14795C10.4449 8.15096 10.4432 8.15369 10.4409 8.15596C10.4386 8.15823 10.4359 8.15999 10.4329 8.16112C10.397 8.17406 10.3577 8.17406 10.3218 8.16112C10.2826 8.15078 10.2443 8.13757 10.207 8.1216C10.1822 8.11303 10.1596 8.09886 10.1411 8.08019C10.111 8.04819 10.1167 8.01431 10.16 7.99926C10.1901 7.99073 10.222 7.99073 10.2522 7.99926C10.2809 8.01166 10.3081 8.02746 10.3331 8.04631L10.4122 8.10654C10.4253 8.10654 10.4536 8.12913 10.446 8.14795Z" fill="#A2933A"/>
<path d="M10.4178 8.14418C10.4151 8.14883 10.4112 8.15272 10.4065 8.15547C10.3742 8.16666 10.3391 8.16666 10.3068 8.15547C10.2729 8.15547 10.239 8.13288 10.2051 8.11971C10.1834 8.11193 10.1636 8.09976 10.1468 8.08395C10.1204 8.05571 10.1261 8.02372 10.1637 8.01242C10.1901 8.00406 10.2183 8.00406 10.2447 8.01242C10.2708 8.02179 10.2951 8.03582 10.3162 8.05383C10.3407 8.07077 10.3651 8.08771 10.3877 8.10653C10.4103 8.12535 10.4235 8.12724 10.4178 8.14418Z" fill="#C7B348"/>
<path d="M13.5987 8.65801C13.5976 8.66102 13.5958 8.66375 13.5935 8.66602C13.5913 8.6683 13.5885 8.67006 13.5855 8.67119C13.5497 8.68428 13.5103 8.68428 13.4745 8.67119C13.4347 8.66085 13.3957 8.64764 13.3578 8.63166C13.3338 8.62219 13.3116 8.60883 13.2919 8.59214C13.2618 8.55826 13.2693 8.52438 13.3107 8.50932C13.341 8.50167 13.3727 8.50167 13.403 8.50932C13.4321 8.52088 13.4594 8.53674 13.4839 8.55638C13.5114 8.57493 13.5378 8.59504 13.5629 8.61661C13.578 8.62225 13.6043 8.64484 13.5987 8.65801Z" fill="#A2933A"/>
<path d="M13.5686 8.65802C13.5675 8.66055 13.566 8.66286 13.5641 8.6648C13.5621 8.66673 13.5598 8.66827 13.5573 8.66931C13.5256 8.6805 13.4911 8.6805 13.4594 8.66931C13.4248 8.65966 13.3908 8.64772 13.3578 8.63355C13.3355 8.62576 13.315 8.6136 13.2976 8.59779C13.2712 8.56955 13.2769 8.53756 13.3145 8.52626C13.3408 8.5179 13.3691 8.5179 13.3954 8.52626C13.4222 8.53557 13.447 8.5496 13.4688 8.56767C13.4933 8.58422 13.5166 8.60246 13.5385 8.62225C13.5516 8.62225 13.5761 8.64296 13.5686 8.65802Z" fill="#C7B348"/>
<path d="M9.11912 4.49653C9.0363 4.53982 8.36625 4.1201 8.26085 4.06928C7.93711 3.91243 7.60961 3.76311 7.27835 3.62132C6.78334 3.40863 5.99094 2.91927 5.4357 3.08113C5.79896 3.44063 6.25256 3.6759 6.61018 4.03352C6.77783 4.24505 6.95889 4.4456 7.15224 4.63393C7.38267 4.77746 7.62365 4.9033 7.87312 5.01036C7.63596 4.88049 8.24955 4.66028 8.29284 4.65463C8.57581 4.65491 8.85624 4.60126 9.11912 4.49653Z" fill="#EFDD90"/>
<path d="M12.876 2.52212C12.6877 2.16639 12.2078 2.02523 11.98 2.3979C11.8446 2.6921 11.8076 3.02212 11.8746 3.33899C11.8746 3.40674 11.9123 3.48956 11.9819 3.49709C12.0516 3.50462 12.0836 3.45192 12.1174 3.40486C12.3057 3.147 12.4619 2.84021 12.7536 2.7254C12.8138 2.70281 12.8891 2.67458 12.8967 2.61058C12.8993 2.57965 12.892 2.54868 12.876 2.52212Z" fill="#9EAF60"/>
<path d="M13.3258 4.52664C13.3242 4.5456 13.3266 4.56469 13.3329 4.58263C13.3393 4.60057 13.3494 4.61695 13.3626 4.63067C13.3758 4.64439 13.3917 4.65514 13.4094 4.66219C13.4271 4.66924 13.4461 4.67244 13.4651 4.67156C13.5042 4.66678 13.5413 4.65148 13.5725 4.62728C13.6036 4.60309 13.6277 4.57091 13.642 4.53417C13.6688 4.46064 13.6815 4.38276 13.6796 4.30454C13.6966 3.9601 13.7135 3.61566 13.7286 3.27122C13.7286 3.45003 13.7926 4.55675 14.0881 4.46452C14.1558 4.44382 14.2085 4.36477 14.2763 4.37983C14.309 4.38965 14.3375 4.4102 14.3572 4.43817C14.4043 4.49088 14.457 4.53981 14.504 4.59251L14.5605 4.6358C14.5978 4.64297 14.6355 4.64738 14.6734 4.64898L14.7261 4.62451C14.7548 4.62678 14.7831 4.63182 14.8108 4.63957C14.8372 4.63957 14.8729 4.66215 14.8654 4.6885C14.8611 4.69914 14.8531 4.70784 14.8428 4.71297C14.568 4.90119 14.1163 4.8786 13.7944 4.90119C13.4273 4.93799 13.0567 4.91895 12.6953 4.84472C12.7593 4.86628 12.827 4.87455 12.8943 4.86905C12.9616 4.86355 13.0271 4.84439 13.0867 4.81273C13.1752 4.76191 13.258 4.53416 13.3258 4.52664Z" fill="#577231"/>
<path d="M3.50272 8.68249C3.55385 8.74863 3.61788 8.8037 3.69093 8.84435C3.70599 8.84435 3.72105 8.82741 3.70411 8.81988C3.63124 8.78899 3.56674 8.74125 3.51589 8.6806C3.51589 8.6806 3.51589 8.6806 3.51589 8.6806L3.50272 8.68249Z" fill="#577231"/>
<path d="M3.44812 8.09337C3.6247 8.30936 3.76459 8.55289 3.8622 8.81424C3.88102 8.85565 3.9469 8.84059 3.93372 8.79542C3.83722 8.52284 3.67034 8.28063 3.45 8.09337H3.44812Z" fill="#577231"/>
<path d="M3.99586 8.4698C4.01091 8.58461 4.02221 8.70319 4.04479 8.818C4.04479 8.85564 4.1182 8.84623 4.11255 8.818C4.09749 8.70131 4.07303 8.58649 4.05044 8.47168C4.05044 8.44156 3.99021 8.44721 3.99586 8.47168V8.4698Z" fill="#577231"/>
<path d="M4.11819 7.88443C4.18092 8.17609 4.21746 8.47278 4.22736 8.77094C4.22947 8.78111 4.23502 8.79025 4.24308 8.7968C4.25113 8.80336 4.2612 8.80694 4.27159 8.80694C4.28198 8.80694 4.29205 8.80336 4.30011 8.7968C4.30816 8.79025 4.31371 8.78111 4.31582 8.77094C4.35759 8.46196 4.29109 8.14805 4.12761 7.88255L4.11819 7.88443Z" fill="#577231"/>
<path d="M15.0913 7.72634C15.1411 7.78839 15.1966 7.84573 15.2569 7.89762C15.2593 7.9009 15.2624 7.9036 15.266 7.90549C15.2695 7.90739 15.2735 7.90843 15.2775 7.90855C15.2816 7.90866 15.2856 7.90784 15.2893 7.90614C15.293 7.90445 15.2962 7.90193 15.2988 7.89878C15.3013 7.89564 15.3031 7.89194 15.304 7.88799C15.3049 7.88404 15.3048 7.87994 15.3039 7.876C15.3029 7.87207 15.3011 7.8684 15.2985 7.8653C15.2959 7.86219 15.2926 7.85972 15.2889 7.85809C15.2308 7.8074 15.1677 7.76263 15.1007 7.72446L15.0913 7.72634Z" fill="#577231"/>
<path d="M14.8165 6.58763C15.0465 6.94802 15.2263 7.33809 15.351 7.74705C15.3563 7.75772 15.3652 7.76619 15.3762 7.77095C15.3871 7.77572 15.3994 7.77649 15.4108 7.77312C15.4223 7.76976 15.4322 7.76247 15.4388 7.75254C15.4454 7.74261 15.4483 7.73067 15.447 7.71882C15.3337 7.29509 15.1281 6.90171 14.8447 6.56692C14.8315 6.55187 14.8071 6.56692 14.8165 6.58763Z" fill="#577231"/>
<path d="M15.4865 7.45343C15.4769 7.54227 15.4865 7.63215 15.5147 7.71693C15.5279 7.76022 15.5994 7.7414 15.5844 7.69811C15.558 7.62195 15.5465 7.54145 15.5505 7.46096C15.5505 7.41955 15.4922 7.42143 15.4865 7.46096V7.45343Z" fill="#577231"/>
<path d="M15.6747 7.54565V7.63787C15.6747 7.64611 15.678 7.65401 15.6838 7.65983C15.6897 7.66566 15.6976 7.66893 15.7058 7.66893C15.714 7.66893 15.7219 7.66566 15.7278 7.65983C15.7336 7.65401 15.7369 7.64611 15.7369 7.63787V7.54565C15.7353 7.53963 15.7317 7.5343 15.7268 7.5305C15.7218 7.5267 15.7158 7.52464 15.7096 7.52464C15.7033 7.52464 15.6973 7.5267 15.6923 7.5305C15.6874 7.5343 15.6839 7.53963 15.6823 7.54565H15.6747Z" fill="#577231"/>
<path d="M1.78806 5.37174C1.81392 5.4596 1.84535 5.54573 1.88216 5.6296C1.89346 5.65783 1.93863 5.6296 1.92357 5.60513C1.88056 5.52435 1.83345 5.44582 1.78241 5.36986C1.78241 5.36986 1.78241 5.36986 1.78241 5.36986L1.78806 5.37174Z" fill="#577231"/>
<path d="M2.01767 5.41315C1.99873 5.43192 1.9855 5.45568 1.97951 5.48166C1.97351 5.50764 1.975 5.53479 1.98379 5.55996C1.99508 5.58819 2.04214 5.57502 2.03085 5.54679C2.02282 5.52985 2.02014 5.51088 2.02316 5.49238C2.02619 5.47389 2.03478 5.45676 2.04778 5.44327C2.06472 5.42256 2.03649 5.39433 2.01767 5.41315Z" fill="#577231"/>
<path d="M1.98757 4.94636C2.06826 5.13943 2.11414 5.34525 2.12308 5.5543C2.12308 5.59948 2.19837 5.59948 2.19461 5.5543C2.17586 5.33773 2.11715 5.12649 2.02145 4.9313C2.01203 4.91437 1.97816 4.9313 1.98757 4.94636Z" fill="#577231"/>
<path d="M2.27177 5.41691L2.23789 5.44137C2.23485 5.44337 2.23229 5.44601 2.2304 5.44912C2.22851 5.45223 2.22734 5.45572 2.22697 5.45933C2.22659 5.46295 2.22703 5.4666 2.22825 5.47003C2.22947 5.47346 2.23143 5.47657 2.234 5.47914C2.23657 5.48171 2.23969 5.48367 2.24311 5.48489C2.24654 5.48611 2.25019 5.48655 2.25381 5.48618C2.25743 5.4858 2.26091 5.48463 2.26402 5.48274C2.26713 5.48085 2.26977 5.47829 2.27177 5.47525L2.29435 5.43949C2.29586 5.43633 2.29635 5.43278 2.29576 5.42933C2.29517 5.42588 2.29352 5.42269 2.29104 5.42021C2.28857 5.41774 2.28538 5.41609 2.28193 5.4155C2.27848 5.4149 2.27493 5.4154 2.27177 5.41691Z" fill="#577231"/>
<path d="M2.36024 5.45831L2.32824 5.48655C2.31131 5.50349 2.33766 5.53172 2.3546 5.5129L2.38471 5.48278C2.38795 5.47954 2.38978 5.47514 2.38978 5.47055C2.38978 5.46596 2.38795 5.46156 2.38471 5.45831C2.38147 5.45507 2.37706 5.45325 2.37248 5.45325C2.36789 5.45325 2.36349 5.45507 2.36024 5.45831Z" fill="#577231"/>
<path d="M1.60925 5.2701C1.65853 5.41941 1.72685 5.56174 1.81253 5.69359C1.81777 5.70282 1.82646 5.70959 1.8367 5.71242C1.84694 5.71524 1.85788 5.71388 1.86711 5.70864C1.87635 5.7034 1.88312 5.69471 1.88594 5.68447C1.88877 5.67423 1.88741 5.66329 1.88217 5.65406C1.80702 5.51831 1.71604 5.39195 1.61114 5.27762L1.60925 5.2701Z" fill="#577231"/>
<path d="M1.88215 5.45831C1.90132 5.48945 1.92205 5.5196 1.94426 5.54865C1.96497 5.57689 2.01202 5.54865 1.99132 5.5223C1.97061 5.49595 1.94991 5.46207 1.92732 5.43196C1.90474 5.40184 1.86333 5.43196 1.88215 5.45831Z" fill="#577231"/>
<path d="M2.25861 5.40186V5.43197C2.25861 5.46209 2.30754 5.46209 2.30566 5.43197V5.40186C2.3042 5.39674 2.30111 5.39225 2.29687 5.38904C2.29262 5.38584 2.28745 5.38411 2.28213 5.38411C2.27682 5.38411 2.27164 5.38584 2.2674 5.38904C2.26315 5.39225 2.26007 5.39674 2.25861 5.40186Z" fill="#577231"/>
<path d="M2.41293 5.45831V5.52042C2.41293 5.52641 2.41531 5.53216 2.41955 5.53639C2.42378 5.54063 2.42953 5.54301 2.43552 5.54301C2.44151 5.54301 2.44725 5.54063 2.45149 5.53639C2.45573 5.53216 2.45811 5.52641 2.45811 5.52042V5.45831C2.45811 5.45282 2.45592 5.44755 2.45204 5.44367C2.44816 5.43979 2.44289 5.43761 2.4374 5.43761C2.43191 5.43761 2.42664 5.43979 2.42276 5.44367C2.41888 5.44755 2.4167 5.45282 2.4167 5.45831H2.41293Z" fill="#577231"/>
<path d="M13.403 4.89366C13.4879 4.91331 13.576 4.91492 13.6616 4.89839C13.7472 4.88185 13.8283 4.84754 13.8998 4.79767C13.9845 4.74496 13.8848 4.60945 13.817 4.69038C13.7027 4.79582 13.5576 4.8618 13.403 4.8786V4.88801V4.89366Z" fill="#364D1D"/>
<path d="M14.1709 4.63392C14.0853 4.63746 14.0019 4.66202 13.9281 4.70545C13.9165 4.71318 13.908 4.7247 13.9039 4.73803C13.8999 4.75136 13.9006 4.76569 13.9059 4.77856C13.9112 4.79144 13.9208 4.80207 13.9331 4.80864C13.9454 4.81521 13.9596 4.81732 13.9733 4.81461C14.0564 4.79107 14.1326 4.74781 14.1954 4.68851C14.2142 4.67157 14.1954 4.63016 14.1728 4.63392H14.1709Z" fill="#364D1D"/>
<path d="M15.2456 4.7205C15.4874 4.71614 15.7186 4.62069 15.8931 4.45323C15.9815 4.37606 15.8253 4.24431 15.7613 4.35159C15.6441 4.53639 15.4588 4.66758 15.2456 4.71673V4.7205Z" fill="#364D1D"/>
<path d="M16.0568 4.46452C16.0273 4.43683 15.9915 4.41671 15.9525 4.40589C15.9135 4.39508 15.8724 4.39388 15.8328 4.40241C15.7274 4.42311 15.7726 4.59063 15.878 4.56428C15.8935 4.55775 15.9101 4.55439 15.927 4.55439C15.9438 4.55439 15.9604 4.55775 15.9759 4.56428C16.0399 4.59439 16.1152 4.51157 16.0568 4.46076V4.46452Z" fill="#364D1D"/>
<path d="M11.389 3.9714C11.4869 3.94505 11.5528 3.83777 11.6017 3.75683C11.67 3.65419 11.7019 3.53155 11.6921 3.40863C11.691 3.39303 11.6845 3.37829 11.6737 3.36692C11.663 3.35555 11.6486 3.34825 11.6331 3.34626C11.6176 3.34426 11.6019 3.3477 11.5886 3.35598C11.5753 3.36426 11.5653 3.37688 11.5603 3.39169C11.534 3.49145 11.5264 3.59309 11.4963 3.69284C11.4524 3.7811 11.4147 3.87229 11.3834 3.96576L11.389 3.9714Z" fill="#364D1D"/>
<path d="M15.2061 8.45851C15.3545 8.44488 15.4973 8.39512 15.622 8.31358C15.7049 8.27029 15.622 8.13854 15.5468 8.18559C15.414 8.24614 15.2978 8.33782 15.208 8.45286L15.2061 8.45851Z" fill="#364D1D"/>
<path d="M16.7514 7.79787C16.397 7.86883 16.0498 7.97216 15.7143 8.10654C15.7023 8.10932 15.6911 8.11467 15.6813 8.12223C15.6716 8.12979 15.6637 8.13937 15.6581 8.15031C15.6524 8.16126 15.6493 8.17329 15.6488 8.18559C15.6482 8.19788 15.6504 8.21013 15.6551 8.2215C15.6599 8.23287 15.667 8.24307 15.676 8.2514C15.6851 8.25973 15.6959 8.26598 15.7076 8.26973C15.7193 8.27348 15.7317 8.27463 15.7439 8.2731C15.7561 8.27157 15.7678 8.2674 15.7783 8.26088C16.1163 8.14004 16.4421 7.98754 16.7514 7.8054V7.79787Z" fill="#364D1D"/>
<path d="M15.8818 7.69998V7.7301C15.8821 7.73694 15.8843 7.74354 15.8883 7.74914C15.8922 7.75473 15.8977 7.75907 15.904 7.76165C15.9104 7.76423 15.9173 7.76493 15.9241 7.76367C15.9308 7.76242 15.937 7.75926 15.942 7.75457C15.9467 7.74958 15.9499 7.74335 15.9511 7.73662C15.9524 7.72989 15.9517 7.72294 15.9491 7.7166C15.9465 7.71026 15.9422 7.70479 15.9366 7.70084C15.931 7.6969 15.9244 7.69464 15.9175 7.69434H15.8855L15.8818 7.69998Z" fill="#364D1D"/>
<path d="M3.44437 8.81048C3.56535 8.81693 3.68465 8.84168 3.79822 8.88388C3.87538 8.90647 3.90738 8.7766 3.83021 8.7653C3.7005 8.75082 3.5692 8.76299 3.44437 8.80107C3.44437 8.80107 3.44437 8.81048 3.44437 8.81048Z" fill="#364D1D"/>
<path d="M4.57933 8.74647H4.54733C4.53691 8.74647 4.52672 8.74956 4.51805 8.75535C4.50938 8.76114 4.50263 8.76937 4.49864 8.779C4.49465 8.78863 4.49361 8.79923 4.49564 8.80945C4.49768 8.81968 4.50269 8.82907 4.51006 8.83644C4.51743 8.84381 4.52683 8.84883 4.53705 8.85086C4.54727 8.85289 4.55787 8.85185 4.5675 8.84786C4.57713 8.84387 4.58536 8.83712 4.59115 8.82845C4.59694 8.81978 4.60003 8.80959 4.60003 8.79917V8.76717C4.60003 8.76069 4.59745 8.75446 4.59286 8.74987C4.58828 8.74528 4.58205 8.74271 4.57556 8.74271L4.57933 8.74647Z" fill="#364D1D"/>
<path d="M4.85788 8.69378L4.82023 8.7126C4.72236 8.76719 4.85788 8.90082 4.91246 8.80671L4.93316 8.76907C4.93977 8.7586 4.94262 8.74619 4.94124 8.73388C4.93987 8.72158 4.93435 8.71011 4.9256 8.70135C4.91684 8.6926 4.90537 8.68708 4.89306 8.6857C4.88076 8.68433 4.86835 8.68718 4.85788 8.69378Z" fill="#364D1D"/>
<path d="M5.08185 8.84623C5.34348 9.29042 5.92319 9.18125 6.34103 9.32806C6.42384 9.35818 6.46337 9.23772 6.39749 9.19443C6.23558 9.10922 6.05292 9.07138 5.87049 9.08526C5.60132 9.05577 5.34315 8.96218 5.11762 8.81235C5.11312 8.80761 5.10693 8.80484 5.1004 8.80467C5.09387 8.80449 5.08754 8.80691 5.08279 8.81141C5.07805 8.8159 5.07529 8.82209 5.07511 8.82862C5.07494 8.83515 5.07736 8.84148 5.08185 8.84623Z" fill="#364D1D"/>
<path d="M6.32221 5.24564C6.30846 5.26298 6.29837 5.28293 6.29254 5.30428C6.28672 5.32563 6.28529 5.34794 6.28833 5.36986C6.28833 5.37984 6.29229 5.38942 6.29935 5.39648C6.30641 5.40354 6.31599 5.4075 6.32597 5.4075C6.33595 5.4075 6.34553 5.40354 6.35259 5.39648C6.35965 5.38942 6.36361 5.37984 6.36361 5.36986C6.36665 5.34794 6.36522 5.32563 6.3594 5.30428C6.35357 5.28293 6.34348 5.26298 6.32973 5.24564H6.32221Z" fill="#364D1D"/>
<path d="M6.32409 4.8579C6.36137 5.0157 6.36966 5.17897 6.34856 5.33973C6.3335 5.46396 6.5556 5.4696 6.54619 5.33973C6.53606 5.15992 6.48176 4.98537 6.38808 4.83155C6.38332 4.82523 6.3766 4.82066 6.36897 4.81858C6.36133 4.81649 6.35322 4.81699 6.34591 4.82C6.33859 4.82301 6.33248 4.82837 6.32853 4.83522C6.32458 4.84208 6.32302 4.85006 6.32409 4.8579Z" fill="#364D1D"/>
<path d="M6.49913 5.24751C6.49346 5.2862 6.49346 5.32551 6.49913 5.36421C6.5035 5.38595 6.51526 5.4055 6.53241 5.41955C6.54957 5.4336 6.57106 5.44128 6.59324 5.44128C6.61541 5.44128 6.6369 5.4336 6.65406 5.41955C6.67121 5.4055 6.68297 5.38595 6.68734 5.36421C6.69301 5.32551 6.69301 5.2862 6.68734 5.24751C6.68734 5.22056 6.67664 5.1947 6.65758 5.17564C6.63851 5.15658 6.61266 5.14587 6.58571 5.14587C6.55875 5.14587 6.5329 5.15658 6.51384 5.17564C6.49478 5.1947 6.48407 5.22056 6.48407 5.24751H6.49913Z" fill="#364D1D"/>
<path d="M6.72122 5.23058C6.71276 5.27282 6.71276 5.31632 6.72122 5.35857C6.7261 5.37318 6.73544 5.3859 6.74794 5.39491C6.76044 5.40392 6.77546 5.40877 6.79087 5.40877C6.80627 5.40877 6.82129 5.40392 6.83379 5.39491C6.84629 5.3859 6.85564 5.37318 6.86051 5.35857C6.86804 5.31624 6.86804 5.27291 6.86051 5.23058C6.85588 5.21729 6.84724 5.20577 6.83577 5.19762C6.8243 5.18947 6.81058 5.18509 6.79651 5.18509C6.78244 5.18509 6.76872 5.18947 6.75725 5.19762C6.74579 5.20577 6.73714 5.21729 6.73252 5.23058H6.72122Z" fill="#364D1D"/>
<path d="M1.3288 5.74252C1.35602 5.75473 1.38439 5.76418 1.41349 5.77075C1.46808 5.78393 1.46808 5.6917 1.41349 5.70487C1.38433 5.71208 1.35596 5.72217 1.3288 5.73499C1.3288 5.73499 1.3288 5.73499 1.3288 5.73499V5.74252Z" fill="#364D1D"/>
<path d="M0.0150438 5.93827C-0.0658897 6.82477 0.203261 7.82044 0.367011 8.69566C0.380186 8.7653 0.489352 8.73518 0.474295 8.66554C0.38395 8.21194 0.308663 7.75645 0.240905 7.29908C0.201369 6.84014 0.128398 6.3847 0.0225725 5.93639C0.0225725 5.93639 0.0225725 5.93639 0.0225725 5.93639L0.0150438 5.93827Z" fill="#C6BA8E"/>
<path d="M0.391487 8.75213C0.803684 9.15115 1.15942 9.59911 1.55655 10.0075C1.59232 10.0452 1.66007 9.99625 1.62996 9.95108C1.29228 9.48265 0.890604 9.06387 0.436659 8.70696C0.404662 8.68249 0.361372 8.7239 0.391487 8.75213Z" fill="#C6BA8E"/>
<path d="M1.59607 10.0376C2.03838 9.82496 2.32447 9.24336 2.45246 8.79541C2.4562 8.78193 2.45444 8.76751 2.44756 8.75534C2.44067 8.74316 2.42924 8.73421 2.41576 8.73047C2.40228 8.72673 2.38787 8.72849 2.37569 8.73537C2.36351 8.74226 2.35457 8.7537 2.35082 8.76717C2.28362 9.01782 2.17551 9.25566 2.03085 9.47111C1.89722 9.65932 1.71088 9.82872 1.59042 10.0358L1.59607 10.0376Z" fill="#283308"/>
<path d="M4.55673 14.7261C4.20987 14.635 3.88133 14.4847 3.58552 14.282C3.19215 13.9488 3.11498 13.2411 2.9757 12.7649C2.72474 11.8866 2.47378 11.012 2.22283 10.1412C2.21933 10.1284 2.21093 10.1176 2.19945 10.1111C2.18798 10.1046 2.17439 10.1028 2.16166 10.1063C2.14893 10.1098 2.13811 10.1182 2.13158 10.1297C2.12505 10.1412 2.12334 10.1548 2.12684 10.1675C2.43175 11.2554 2.74544 12.3408 3.06792 13.4237C3.16956 13.7493 3.19968 14.1163 3.50271 14.3045C3.83185 14.4925 4.18523 14.6343 4.55296 14.7261H4.55673Z" fill="#AE9F60"/>
<path d="M4.1069 13.6928C4.35305 14.5466 4.78208 15.3366 5.3642 16.0079C5.39055 16.038 5.43384 15.9929 5.40937 15.9627C4.85845 15.28 4.42004 14.5138 4.11067 13.6928H4.1069Z" fill="#283308"/>
<path d="M5.4809 15.9985C5.89612 16.1156 6.30348 16.2589 6.70055 16.4276C7.13533 16.5724 7.57925 16.6881 8.02936 16.774C8.11594 16.7909 8.1517 16.6573 8.06512 16.6422C7.58956 16.5536 7.11999 16.4354 6.65914 16.2884C6.2827 16.1679 5.88368 15.9383 5.48278 15.991L5.4809 15.9985Z" fill="#283308"/>
<path d="M9.17935 17.4741C9.84322 17.0457 10.3401 16.4027 10.5872 15.6522C10.5896 15.6375 10.587 15.6225 10.5797 15.6095C10.5725 15.5965 10.5611 15.5864 10.5473 15.5807C10.5336 15.575 10.5183 15.5742 10.5041 15.5783C10.4898 15.5824 10.4773 15.5912 10.4686 15.6032C10.2955 15.9625 10.0941 16.3074 9.86635 16.6347C9.64801 16.9245 9.38451 17.1749 9.17371 17.4685L9.17935 17.4741Z" fill="#1B0D00"/>
<path d="M9.18687 17.476C9.52566 16.9509 9.63107 16.2206 9.72894 15.6127C9.83105 14.9661 9.87139 14.3113 9.8494 13.6571C9.8494 13.5404 9.66118 13.5404 9.67059 13.6571C9.70118 14.3493 9.66272 15.0429 9.55578 15.7275C9.46167 16.3147 9.23016 16.885 9.16617 17.4722C9.16617 17.4854 9.18123 17.4873 9.18687 17.4722V17.476Z" fill="#283308"/>
<path d="M9.74025 13.5893C9.90848 13.5604 10.0711 13.5052 10.2221 13.4256C10.4261 13.34 10.6253 13.2432 10.8187 13.1357C10.879 13.0999 10.8394 12.9945 10.7698 13.019C10.586 13.0948 10.4063 13.1802 10.2315 13.275C10.0514 13.3495 9.88483 13.4532 9.73837 13.5818L9.74025 13.5893Z" fill="#283308"/>
<path d="M10.8169 13.0774C11.1199 12.7423 11.293 12.2699 11.4417 11.8577C11.6232 11.3806 11.7495 10.8842 11.8182 10.3783C11.8313 10.2767 11.6732 10.2767 11.6601 10.3783C11.5886 10.8674 11.4655 11.3475 11.293 11.8107C11.1406 12.2304 10.8959 12.6369 10.8037 13.0736L10.8169 13.0774Z" fill="#283308"/>
<path d="M10.0226 9.61792C10.053 9.71862 10.0967 9.81483 10.1525 9.90401C10.2052 10.0075 10.2579 10.1148 10.303 10.2221C10.3331 10.2917 10.4385 10.2221 10.4065 10.1619C10.3349 9.94711 10.2045 9.75672 10.0301 9.61227C10.0301 9.61227 10.0301 9.61227 10.0301 9.61227L10.0226 9.61792Z" fill="#283308"/>
<path d="M10.3331 10.3407C11.2489 10.4936 12.1866 10.4513 13.0849 10.2165C13.1061 10.2107 13.1242 10.1968 13.1351 10.1777C13.146 10.1587 13.149 10.136 13.1432 10.1148C13.1375 10.0936 13.1236 10.0755 13.1045 10.0646C13.0854 10.0536 13.0628 10.0507 13.0416 10.0565C12.1619 10.2712 11.2504 10.3235 10.352 10.2108C10.2786 10.2108 10.2616 10.3275 10.3331 10.3407Z" fill="#283308"/>
<path d="M13.0905 10.1205C13.3126 9.88708 13.3728 9.46547 13.4462 9.16433C13.4651 9.08151 13.3408 9.04763 13.3201 9.12856C13.2731 9.30361 13.2223 9.47865 13.1714 9.65181C13.1151 9.80111 13.0852 9.95905 13.083 10.1186L13.0905 10.1205Z" fill="#283308"/>
<path d="M10.5251 15.6352C10.9844 15.6164 11.4511 15.3849 11.8633 15.1892C12.3289 14.9703 12.752 14.6708 13.1131 14.3045C13.1865 14.2293 13.0698 14.1163 12.9964 14.1878C12.6448 14.5455 12.2341 14.8396 11.7824 15.0574C11.374 15.2456 10.894 15.3604 10.5232 15.6221L10.5251 15.6352Z" fill="#1B0D00"/>
<path d="M13.0698 14.3045C13.1508 14.1173 13.2053 13.9196 13.2317 13.7173C13.2693 13.514 13.322 13.3089 13.3408 13.1037C13.3408 13.0491 13.2656 13.0435 13.2486 13.0905C13.1918 13.3039 13.1497 13.5208 13.1225 13.7399C13.0798 13.925 13.0596 14.1146 13.0623 14.3045H13.0698Z" fill="#1B0D00"/>
<path d="M12.5466 10.3369C12.5395 11.1094 12.4595 11.8795 12.3075 12.6369C12.3057 12.6484 12.3081 12.6602 12.3144 12.67C12.3207 12.6797 12.3304 12.6868 12.3417 12.6899C12.3529 12.6929 12.3649 12.6917 12.3752 12.6864C12.3856 12.6812 12.3937 12.6723 12.3979 12.6614C12.6288 11.907 12.7012 11.1131 12.6105 10.3294C12.6105 10.2918 12.5484 10.3012 12.5466 10.3294V10.3369Z" fill="#283308"/>
<path d="M12.3471 12.6294C12.6137 12.8752 12.937 13.0511 13.2882 13.1414C13.3616 13.1658 13.3954 13.0472 13.3202 13.0247C12.9814 12.9193 12.6783 12.731 12.3452 12.6219L12.3471 12.6294Z" fill="#283308"/>
<path d="M13.2787 13.0962C13.7493 13.0435 14.2198 12.8327 14.6678 12.684C14.7393 12.6614 14.7073 12.5466 14.6358 12.5711C14.1897 12.7254 13.6853 12.8421 13.2769 13.0887L13.2787 13.0962Z" fill="#283308"/>
<path d="M14.7337 12.6332C15.2983 11.8125 15.6427 10.7811 15.942 9.84002C15.9684 9.75909 15.8423 9.72521 15.8159 9.80614C15.5091 10.7773 15.0461 11.6695 14.681 12.6106C14.6678 12.6426 14.7186 12.6595 14.7355 12.6332H14.7337Z" fill="#251805"/>
<path d="M15.8347 9.86826C16.0082 9.84547 16.1771 9.79595 16.3354 9.72145C16.5048 9.65934 16.6817 9.6104 16.8455 9.53323C16.917 9.50124 16.8643 9.39771 16.7946 9.41277C16.6183 9.45874 16.4468 9.52178 16.2827 9.60099C16.115 9.65562 15.961 9.74546 15.831 9.86449L15.8347 9.86826Z" fill="#283308"/>
<path d="M15.0386 12.1702C15.5986 12.0111 16.1184 11.7346 16.5631 11.3589C16.6083 11.3213 16.55 11.2516 16.5029 11.278C16.2526 11.4173 16.0192 11.5867 15.7726 11.7278C15.5183 11.8592 15.2714 12.0043 15.0329 12.1626L15.0386 12.1702Z" fill="#283308"/>
<path d="M3.60623 9.24337C3.66081 9.96236 3.93938 10.7077 4.21794 11.3665C4.25182 11.4436 4.36475 11.3778 4.33275 11.3006C4.04101 10.6324 3.91303 9.90213 3.61376 9.24149L3.60623 9.24337Z" fill="#283308"/>
<path d="M4.27063 11.3345C4.51719 11.7109 5.03479 11.9706 5.41876 12.1871C5.50157 12.2342 5.57686 12.1062 5.49404 12.061C5.27007 11.9387 5.05926 11.8088 4.85034 11.6695C4.67313 11.5336 4.48043 11.4193 4.27628 11.3288C4.27628 11.3288 4.27628 11.3288 4.27628 11.3288L4.27063 11.3345Z" fill="#283308"/>
<path d="M5.4056 12.1062C5.53463 13.1572 5.73651 14.1981 6.00978 15.2212C6.03048 15.3115 6.16223 15.272 6.1453 15.1835C5.98857 14.1405 5.75901 13.1096 5.4583 12.0986C5.44889 12.0685 5.39807 12.0723 5.39995 12.0986L5.4056 12.1062Z" fill="#283308"/>
<path d="M5.42064 16.0098C5.71345 15.7662 5.96734 15.4793 6.17351 15.159C6.2168 15.0988 6.11516 15.0386 6.07564 15.1007C5.86671 15.4113 5.62203 15.6898 5.39241 15.9834C5.38969 15.9871 5.38837 15.9915 5.38869 15.9961C5.38901 16.0006 5.39095 16.0048 5.39415 16.008C5.39736 16.0112 5.40161 16.0132 5.40613 16.0135C5.41065 16.0138 5.41513 16.0125 5.41876 16.0098H5.42064Z" fill="#283308"/>
<path d="M6.134 15.1271C6.61019 15.5148 7.28401 15.7482 7.82796 16.0136C7.89948 16.0474 7.9616 15.942 7.89007 15.9063C7.34048 15.639 6.74195 15.2456 6.13965 15.1195L6.134 15.1271Z" fill="#283308"/>
<path d="M9.15112 9.48241C9.25608 9.60473 9.40081 9.68613 9.55985 9.71229C9.7189 9.73846 9.88208 9.70771 10.0207 9.62545C10.0828 9.59346 10.0207 9.49558 9.96422 9.52946C9.83572 9.58791 9.69475 9.61369 9.55388 9.60449C9.41301 9.5953 9.27659 9.55142 9.15677 9.47676L9.15112 9.48241Z" fill="#283308"/>
<path d="M7.48351 9.51629L7.02426 9.50123C6.56116 9.51699 6.09979 9.43689 5.6691 9.26596C6.18481 9.16997 6.84546 9.34877 7.32165 9.50123C7.8863 9.68945 8.54318 9.62922 9.11724 9.56522C9.75907 9.4937 10.4065 9.48241 11.0484 9.41089C11.3991 9.37235 11.7416 9.27832 12.0628 9.13232C11.4681 9.18691 10.8771 9.26596 10.2842 9.32054C9.28664 9.42783 8.32297 9.39018 7.32353 9.42218C7.31563 9.4193 7.30696 9.4193 7.29906 9.42218L7.48351 9.51629Z" fill="#C6BA8E"/>
<path d="M7.32353 9.46924C7.13531 9.57652 7.04685 9.86638 7.00168 10.0659C6.99921 10.0828 7.00303 10.1 7.01242 10.1142C7.0218 10.1285 7.0361 10.1388 7.05258 10.1432C7.06907 10.1476 7.08661 10.1458 7.10186 10.1382C7.11711 10.1305 7.12901 10.1175 7.13531 10.1016C7.16543 9.98684 7.20119 9.87767 7.24071 9.76474C7.28462 9.67246 7.31444 9.57412 7.32917 9.473L7.32353 9.46924Z" fill="#C6BA8E"/>
<path d="M7.00356 10.1035C6.70241 10.0188 6.45773 10.1242 6.16034 10.1807C5.6707 10.2732 5.16412 10.1899 4.72989 9.94542C4.63954 9.89648 4.55861 10.0358 4.65084 10.0828C4.97007 10.2618 5.32775 10.3612 5.69356 10.3727C6.1434 10.3727 6.55372 10.1845 6.99791 10.1449C7.0034 10.1449 7.00867 10.1428 7.01255 10.1389C7.01643 10.135 7.01861 10.1297 7.01861 10.1242C7.01861 10.1187 7.01643 10.1135 7.01255 10.1096C7.00867 10.1057 7.0034 10.1035 6.99791 10.1035H7.00356Z" fill="#C6BA8E"/>
<path d="M4.63014 10.0113C4.64066 9.79958 4.59591 9.58877 4.50027 9.39959C4.47016 9.32995 4.36852 9.38265 4.3817 9.45041C4.41429 9.65593 4.49775 9.85004 4.6245 10.0151L4.63014 10.0113Z" fill="#C6BA8E"/>
<path d="M3.59307 9.26785C3.84717 9.30881 4.09466 9.3835 4.329 9.48994C4.40429 9.52382 4.46828 9.41277 4.39299 9.38078C4.14619 9.27337 3.88596 9.19992 3.61942 9.16245C3.55166 9.16245 3.51966 9.25655 3.5893 9.26785H3.59307Z" fill="#283308"/>
<path d="M4.37416 9.42782C4.5909 9.38663 4.78877 9.27714 4.93881 9.11538C4.99339 9.05892 4.90681 8.97234 4.85411 9.0288C4.70886 9.17789 4.53801 9.29965 4.34969 9.3883C4.32522 9.39959 4.34969 9.43159 4.36663 9.42782H4.37416Z" fill="#C6BA8E"/>
<path d="M6.21116 9.377C5.90235 9.25102 5.5761 9.17295 5.24372 9.14549C5.18349 9.14549 5.17596 9.23207 5.23054 9.24901C5.54854 9.34436 5.8792 9.39069 6.21116 9.38641V9.377Z" fill="#C6BA8E"/>
<path d="M13.4143 9.03445C14.4363 8.99681 15.7068 8.58461 16.501 7.93338C15.9608 8.14418 15.4225 8.3851 14.873 8.56956C14.3874 8.73142 13.8773 8.79165 13.4124 9.02692L13.4143 9.03445Z" fill="#C6BA8E"/>
<path d="M4.61133 10.1261C4.85173 10.5216 5.19269 10.8464 5.59947 11.0672C5.61128 11.0722 5.62454 11.0728 5.63673 11.0688C5.64893 11.0647 5.65924 11.0564 5.66571 11.0453C5.67218 11.0342 5.67438 11.0211 5.67189 11.0085C5.66939 10.9959 5.66238 10.9847 5.65217 10.9769C5.2842 10.7189 4.93797 10.4312 4.61697 10.1167C4.61697 10.1167 4.61697 10.1167 4.61697 10.1167L4.61133 10.1261Z" fill="#283308"/>
<path d="M5.62206 11.1048C6.29023 11.2215 7.01863 10.9844 7.60587 10.6776C7.66422 10.6475 7.60587 10.5571 7.55317 10.5891C6.92452 10.9185 6.31658 10.9844 5.62582 11.071C5.60888 11.071 5.60135 11.1011 5.62582 11.1048H5.62206Z" fill="#283308"/>
<path d="M7.00358 10.1638C7.18667 10.3611 7.39412 10.5344 7.62093 10.6795C7.66422 10.7077 7.70375 10.6399 7.66046 10.6117C7.44386 10.4635 7.23817 10.3 7.04498 10.1224C7.03922 10.1188 7.03243 10.1173 7.02571 10.1181C7.019 10.1189 7.01275 10.122 7.00797 10.1267C7.00319 10.1315 7.00015 10.1378 6.99936 10.1445C6.99856 10.1512 7.00005 10.158 7.00358 10.1638Z" fill="#283308"/>
<path d="M7.66607 10.6004C7.74974 10.4013 7.80242 10.1906 7.82229 9.97554C7.82229 9.91719 7.73948 9.91907 7.73383 9.97554C7.70575 10.1794 7.66743 10.3816 7.61902 10.5816C7.61902 10.6079 7.6529 10.6268 7.66607 10.6004Z" fill="#283308"/>
<path d="M7.31787 9.51816C7.48297 9.63184 7.62961 9.77023 7.75265 9.92848C7.75624 9.93293 7.76066 9.93663 7.76568 9.93937C7.77069 9.94211 7.77619 9.94383 7.78187 9.94444C7.78756 9.94505 7.7933 9.94454 7.79878 9.94293C7.80426 9.94132 7.80937 9.93865 7.81382 9.93507C7.81827 9.93148 7.82197 9.92706 7.82471 9.92204C7.82745 9.91703 7.82918 9.91153 7.82979 9.90585C7.8304 9.90017 7.82989 9.89442 7.82828 9.88894C7.82667 9.88346 7.824 9.87834 7.82041 9.8739C7.69059 9.70857 7.51719 9.58277 7.31975 9.51064C7.31975 9.51064 7.31975 9.51064 7.31975 9.51064L7.31787 9.51816Z" fill="#283308"/>
<path d="M7.6002 13.0792C7.56214 14.1073 7.66473 15.1357 7.90511 16.1359C8.06698 16.8116 8.41706 17.3819 9.16805 17.4534C9.17995 17.4525 9.19118 17.4476 9.19991 17.4394C9.20863 17.4313 9.21434 17.4204 9.21608 17.4086C9.21783 17.3968 9.21552 17.3848 9.20953 17.3744C9.20354 17.3641 9.19423 17.3561 9.18311 17.3518C8.24202 17.1636 8.02745 16.3373 7.90135 15.5035C7.77712 14.6998 7.7583 13.8792 7.62278 13.0755H7.60585L7.6002 13.0792Z" fill="#283308"/>
<path d="M6.45962 12.3904C6.80589 12.6692 7.17626 12.9167 7.56634 13.1301C7.58516 13.1413 7.59833 13.115 7.58139 13.1037C7.21625 12.8553 6.82852 12.6256 6.45209 12.3866L6.45962 12.3904Z" fill="#283308"/>
<path d="M8.72951 9.87955C8.40894 9.81595 8.08449 9.77382 7.75831 9.75345C7.6849 9.75345 7.68302 9.8645 7.75831 9.86826C8.08131 9.89524 8.40571 9.90153 8.72951 9.88708V9.87955Z" fill="#283308"/>
<path d="M1.59042 10.0358C1.67437 10.1039 1.77516 10.1481 1.88216 10.1638C2.00537 10.1937 2.13181 10.2082 2.2586 10.2071C2.32447 10.2071 2.32259 10.1111 2.2586 10.1054C2.14567 10.096 2.03273 10.0847 1.92169 10.0715C1.8146 10.0478 1.70565 10.0333 1.59607 10.0282L1.59042 10.0358Z" fill="#283308"/>
<path d="M2.204 10.1638C2.58247 9.89322 2.87779 9.52228 3.05663 9.0928C3.07168 9.05892 3.02463 9.02881 3.00392 9.06269C2.88801 9.27173 2.75849 9.47293 2.6162 9.66498C2.48444 9.83438 2.32634 9.98684 2.20212 10.1619L2.204 10.1638Z" fill="#283308"/>
<path d="M15.622 11.9255C15.5392 12.7179 15.447 13.514 15.3152 14.2989C15.3152 14.3215 15.3454 14.3328 15.3491 14.3102C15.4752 13.5159 15.5882 12.7254 15.6559 11.9255C15.6559 11.9029 15.6239 11.9029 15.622 11.9255Z" fill="#283308"/>
<path d="M15.3303 14.3045C15.0197 14.3949 14.7657 14.6396 14.4833 14.7807C14.4438 14.8014 14.4833 14.8617 14.5191 14.8428C14.8045 14.6871 15.0759 14.507 15.3303 14.3045Z" fill="#283308"/>
<path d="M14.4739 14.809C14.4739 15.1854 14.4532 15.5618 14.4739 15.927C14.4729 15.9303 14.4727 15.9339 14.4733 15.9374C14.4739 15.9408 14.4754 15.9441 14.4775 15.9469C14.4796 15.9497 14.4823 15.952 14.4854 15.9536C14.4886 15.9552 14.4921 15.956 14.4956 15.956C14.4991 15.956 14.5026 15.9552 14.5057 15.9536C14.5088 15.952 14.5116 15.9497 14.5137 15.9469C14.5158 15.9441 14.5172 15.9408 14.5178 15.9374C14.5184 15.9339 14.5182 15.9303 14.5172 15.927C14.5436 15.5505 14.5172 15.1741 14.5172 14.809C14.5172 14.8015 14.5142 14.7943 14.509 14.789C14.5037 14.7837 14.4965 14.7807 14.489 14.7807C14.4815 14.7807 14.4743 14.7837 14.469 14.789C14.4637 14.7943 14.4608 14.8015 14.4608 14.809H14.4739Z" fill="#283308"/>
<path d="M14.4739 15.9006C13.8792 16.5632 13.2863 17.2313 12.5447 17.7357C11.8031 18.2402 10.9298 18.562 10.0791 18.8651C10.0245 18.8839 10.0471 18.9723 10.1035 18.9516C10.9599 18.6392 11.8276 18.3192 12.5842 17.7997C13.3135 17.2737 13.9621 16.644 14.5097 15.9307C14.5285 15.9063 14.4965 15.8705 14.4739 15.895V15.9006Z" fill="#283308"/>
<path d="M10.0132 18.8481C9.92848 19.2193 9.87621 19.5972 9.85693 19.9774C9.85693 20.0188 9.91716 20.0188 9.92093 19.9774C9.98626 19.6046 10.0184 19.2266 10.0169 18.8481H10.0132Z" fill="#283308"/>
<path d="M7.2106 16.5744C7.2711 16.9303 7.38201 17.2757 7.53998 17.6002C7.65867 17.937 7.81795 18.2581 8.01429 18.5564C8.45472 19.1361 9.20759 19.5822 9.80424 19.9831C9.84188 20.0094 9.87764 19.9473 9.84 19.9228C9.24335 19.5238 8.51119 19.0947 8.07076 18.5206C7.66394 17.9324 7.37326 17.2718 7.21437 16.5744H7.2106Z" fill="#283308"/>
<path d="M11.4944 17.2069C10.9589 17.7447 10.4561 18.3141 9.98868 18.9121C9.96233 18.9498 10.0226 18.9968 10.0527 18.9611C10.5251 18.3757 11.0973 17.8506 11.4963 17.2106L11.4944 17.2069Z" fill="#271A06"/>
<path d="M11.5415 16.215C11.4963 16.5406 11.4719 16.8643 11.4474 17.1899C11.4474 17.2257 11.4982 17.2257 11.5001 17.1899C11.5227 16.8662 11.5434 16.5424 11.5453 16.2168L11.5415 16.215Z" fill="#271A06"/>
<path d="M12.9381 15.1346C12.9311 15.4158 12.9731 15.696 13.0623 15.9627C13.0623 15.9662 13.0637 15.9696 13.0661 15.9721C13.0686 15.9745 13.072 15.9759 13.0755 15.9759C13.079 15.9759 13.0823 15.9745 13.0848 15.9721C13.0872 15.9696 13.0886 15.9662 13.0886 15.9627C13.034 15.6917 13.0002 15.4131 12.9418 15.1421L12.9381 15.1346Z" fill="#283308"/>
<path d="M13.0736 15.9609C13.1771 16.1037 13.2964 16.2344 13.4293 16.3505C13.4575 16.3712 13.4858 16.3222 13.4575 16.3034C13.3164 16.2074 13.2373 16.0192 13.0811 15.9571L13.0736 15.9609Z" fill="#283308"/>
<path d="M13.4255 16.2865C13.4456 16.5275 13.4506 16.7695 13.4406 17.0111C13.4406 17.0525 13.5065 17.0544 13.5065 17.0111C13.5205 16.767 13.4944 16.5222 13.4293 16.2865H13.4255Z" fill="#283308"/>
<path d="M13.9281 10.303C14.0053 10.4913 14.0806 10.6795 14.1389 10.8809C14.1389 10.8978 14.1728 10.8809 14.1671 10.8809C14.1094 10.6847 14.0305 10.4954 13.9319 10.3162L13.9281 10.303Z" fill="#283308"/>
<path d="M14.137 10.9279C14.2556 10.9813 14.3768 11.0284 14.5003 11.0691C14.505 11.0699 14.5098 11.0691 14.514 11.0668C14.5181 11.0645 14.5214 11.0608 14.5231 11.0564C14.5249 11.052 14.5251 11.0471 14.5237 11.0425C14.5222 11.038 14.5193 11.0341 14.5153 11.0314C14.3962 10.9768 14.2743 10.9285 14.1502 10.8865C14.122 10.8752 14.1126 10.9166 14.137 10.9279Z" fill="#283308"/>
<path d="M14.4927 11.086C14.6269 11.3728 14.7984 11.6405 15.0028 11.8822C15.0423 11.9274 15.1063 11.8615 15.0668 11.8163C14.8642 11.5858 14.688 11.3332 14.5417 11.0634C14.5247 11.0314 14.4777 11.0634 14.4927 11.0936V11.086Z" fill="#283308"/>
<path d="M6.63089 11.9518C6.56422 12.0037 6.51084 12.0707 6.47517 12.1473C6.4395 12.2239 6.42255 12.3078 6.42573 12.3923C6.42745 12.3992 6.43144 12.4054 6.43707 12.4098C6.4427 12.4142 6.44964 12.4166 6.45679 12.4166C6.46393 12.4166 6.47087 12.4142 6.4765 12.4098C6.48213 12.4054 6.48612 12.3992 6.48784 12.3923C6.48824 12.2344 6.53901 12.0807 6.63277 11.9537L6.63089 11.9518Z" fill="#283308"/>
<path d="M8.72763 9.88519C8.91673 10.0928 9.13036 10.2768 9.36381 10.4329C9.38639 10.448 9.40333 10.4141 9.38451 10.399C9.16994 10.2334 8.98172 9.99059 8.72951 9.88142L8.72763 9.88519Z" fill="#283308"/>
<path d="M9.34121 10.4611C9.08803 10.9638 8.78134 11.4378 8.42648 11.8746C8.42262 11.8784 8.41983 11.883 8.41837 11.8882C8.41692 11.8933 8.41686 11.8987 8.4182 11.9039C8.41954 11.9091 8.42223 11.9138 8.426 11.9176C8.42977 11.9214 8.43448 11.9241 8.43965 11.9255C8.57004 11.9536 8.70404 11.9613 8.83679 11.9481C8.87255 11.9481 8.87443 11.8897 8.83679 11.8916C8.76903 11.8916 8.64857 11.9255 8.58834 11.8709C8.52811 11.8163 8.58834 11.7655 8.65986 11.6827C8.74268 11.5754 8.82361 11.4662 8.8989 11.3533C9.08694 11.0785 9.24768 10.786 9.37886 10.48C9.39015 10.4555 9.35439 10.431 9.34121 10.4574V10.4611Z" fill="#283308"/>
<path d="M8.84622 11.9236C8.91101 12.2083 8.95256 12.4979 8.97045 12.7894C8.97045 12.8477 9.06644 12.8477 9.06079 12.7894C9.04071 12.4913 8.97731 12.1977 8.87257 11.9179C8.87257 11.9048 8.84622 11.9179 8.84999 11.9179L8.84622 11.9236Z" fill="#283308"/>
<path d="M9.2697 12.9362C9.24574 12.9011 9.21484 12.8713 9.1789 12.8487C9.14297 12.826 9.10276 12.811 9.06078 12.8045C9.05768 12.8035 9.0544 12.8033 9.05119 12.8038C9.04799 12.8043 9.04496 12.8056 9.04234 12.8075C9.03973 12.8095 9.0376 12.812 9.03614 12.8149C9.03467 12.8178 9.03391 12.821 9.03391 12.8242C9.03391 12.8275 9.03467 12.8307 9.03614 12.8336C9.0376 12.8365 9.03973 12.839 9.04234 12.8409C9.04496 12.8428 9.04799 12.8441 9.05119 12.8446C9.0544 12.8452 9.05768 12.8449 9.06078 12.844C9.13917 12.8525 9.21291 12.8854 9.27158 12.9381L9.2697 12.9362Z" fill="#283308"/>
<path d="M10.5402 12.684C10.5722 12.7386 10.5947 12.8026 10.6249 12.859C10.655 12.9155 10.6926 12.9701 10.7265 13.0247C10.7604 13.0792 10.8206 13.0247 10.7924 12.987C10.7641 12.9494 10.7246 12.8873 10.687 12.8402C10.6493 12.7932 10.5891 12.7367 10.5458 12.6802L10.5402 12.684Z" fill="#283308"/>
<path d="M1.75604 8.43968C2.00864 8.62725 2.28692 8.77748 2.58232 8.88576C2.90818 9.05067 3.24759 9.18731 3.59681 9.29419C3.6608 9.30737 3.68904 9.20949 3.62316 9.19443C3.33257 9.10467 3.04888 8.99396 2.7743 8.86317C2.42492 8.74987 2.08609 8.60628 1.76169 8.43404L1.75604 8.43968Z" fill="#283308"/>
<path d="M3.59306 11.758C3.54789 11.9462 3.51213 12.1344 3.47449 12.3226C3.47449 12.3396 3.49707 12.3452 3.49896 12.3226C3.53472 12.1344 3.57048 11.9462 3.59683 11.758H3.59306Z" fill="#283308"/>
<path d="M3.43494 12.364C3.57434 12.4713 3.72227 12.567 3.87726 12.6501C3.90361 12.6652 3.92619 12.6256 3.90172 12.6087C3.7568 12.51 3.60453 12.4225 3.44624 12.3471C3.44624 12.3471 3.42742 12.3584 3.43494 12.364Z" fill="#283308"/>
<path d="M4.10878 13.6853C4.3697 13.2838 4.603 12.865 4.80706 12.4318C4.82212 12.4035 4.77695 12.3772 4.76189 12.4073C4.51291 12.8165 4.2934 13.243 4.10501 13.6834C4.10501 13.6834 4.10501 13.6834 4.10501 13.6834L4.10878 13.6853Z" fill="#283308"/>
<path d="M4.76753 12.3678C4.48557 12.491 4.18559 12.5679 3.87914 12.5955C3.83397 12.5955 3.85279 12.6727 3.89796 12.6633C4.20805 12.6341 4.51096 12.5526 4.79388 12.4224C4.79731 12.4209 4.8004 12.4187 4.80292 12.416C4.80545 12.4132 4.80736 12.41 4.80854 12.4064C4.80971 12.4029 4.81011 12.3991 4.80972 12.3954C4.80934 12.3917 4.80816 12.3881 4.80628 12.3849C4.8044 12.3816 4.80185 12.3788 4.79881 12.3767C4.79576 12.3745 4.7923 12.373 4.78863 12.3723C4.78497 12.3716 4.78119 12.3716 4.77755 12.3725C4.77391 12.3733 4.7705 12.3749 4.76753 12.3772V12.3678Z" fill="#283308"/>
</svg>
